<?xml version="1.0" standalone="no"?><!DOCTYPE svg PUBLIC "-//W3C//DTD SVG 1.1//EN" "http://www.w3.org/Graphics/SVG/1.1/DTD/svg11.dtd"><svg t="1751767633797" class="icon" viewBox="0 0 1024 1024" version="1.1" xmlns="http://www.w3.org/2000/svg" p-id="8834" xmlns:xlink="http://www.w3.org/1999/xlink" width="200" height="200"><path d="M522.069333 287.402667c2.218667-0.682667 3.754667-1.194667 5.461334-1.536 2.389333-0.512 4.778667-1.024 7.168-0.853334 7.850667 0.682667 15.189333 3.072 21.333333 8.362667 3.242667 2.730667 6.485333 5.632 9.386667 8.874667 8.533333 9.386667 17.066667 18.602667 25.258666 28.330666 20.650667 24.405333 41.130667 48.981333 59.904 74.922667 9.216 12.8 18.261333 25.429333 25.429334 39.594667 5.632 11.264 11.434667 22.357333 15.36 34.304 2.389333 7.509333 3.925333 15.36 3.925333 23.210666 0 3.754667 0 7.509333-1.365333 11.093334-0.512 1.365333 0 2.389333 0.512 3.584 0.853333 1.877333 1.536 4.096 2.218666 6.144 0.341333 1.024 0.512 2.048 1.194667 2.730666 10.922667 13.653333 19.626667 28.672 26.965333 44.373334 13.653333 29.354667 29.696 57.344 46.592 84.992 3.754667 5.973333 7.168 12.288 10.752 18.432 4.608 7.850667 8.192 16.042667 10.581334 24.917333 2.901333 11.264 3.584 22.528 0.512 33.792-1.536 5.802667-4.437333 10.752-8.533334 15.018667-7.168 7.68-15.701333 13.312-24.746666 18.432-2.389333 1.365333-3.584 2.901333-4.096 5.802666-1.536 10.581333-6.826667 19.626667-13.653334 27.818667-8.192 9.557333-17.408 17.749333-28.330666 24.064-9.557333 5.632-19.114667 11.434667-29.696 15.530667-7.850667 2.901333-16.042667 4.608-24.576 4.608-8.704 0-16.725333-2.048-24.576-5.461334-12.8-5.632-23.893333-13.824-34.474667-22.698666a1484.8512 1484.8512 0 0 1-74.752-68.096c-7.850667-7.68-15.530667-15.701333-22.357333-24.405334-2.389333-3.072-5.12-5.802667-7.509334-8.704-0.682667-0.853333-1.877333-1.706667-2.218666-2.730666-1.194667-3.072-3.242667-2.901333-5.973334-2.389334-11.093333 1.706667-22.186667 1.365333-33.109333-1.536-16.384-4.266667-29.525333-13.482667-39.082667-27.477333-7.68-11.093333-13.653333-23.210667-18.944-35.669333-16.725333-38.570667-28.672-78.506667-36.864-119.637334-0.512-2.901333-0.853333-5.802667-1.194666-8.704 0-2.048-0.853333-3.072-2.901334-3.584-11.093333-3.413333-20.309333-9.728-27.989333-18.261333-1.024-1.194667-2.218667-2.218667-2.56-3.584-0.682667-2.389333-2.389333-2.730667-4.437333-2.901333-5.12-0.341333-10.24-0.853333-15.189334-1.536-17.237333-2.218667-33.792-6.656-49.493333-13.824-58.026667-26.282667-94.890667-70.656-110.250667-132.437334-4.608-18.602667-5.802667-37.717333-4.266666-56.832 6.656-87.381333 69.461333-154.965333 149.333333-172.373333 17.749333-3.925333 35.669333-5.290667 53.76-3.925333 68.266667 4.778667 126.464 44.885333 156.16 102.4a190.805333 190.805333 0 0 1 20.138667 64.512c0.341333 3.242667 0.512 6.485333 0.853333 9.728 0 1.024 0.170667 2.048 0.341333 3.584z m-58.709333 124.416c-0.512-1.194667-1.024-2.389333-1.706667-3.584-4.266667-8.704-7.850667-17.578667-9.898666-27.136-3.072-14.677333-0.682667-27.989333 8.874666-39.765334 2.730667-3.413333 5.632-6.485333 8.533334-9.728 10.581333-11.264 22.698667-20.992 34.645333-30.890666 1.877333-1.536 2.56-3.072 2.56-5.290667 0-15.701333-2.389333-31.061333-6.656-46.08-24.917333-86.698667-110.933333-140.8-200.533333-123.904-43.52 8.192-79.018667 30.378667-106.325334 65.365333-17.749333 22.869333-28.842667 48.981333-33.792 77.482667-2.730667 15.701333-3.242667 31.402667-1.365333 47.274667 0.853333 7.168 2.389333 14.165333 3.584 21.333333 0.341333 1.536 0.512 2.901333 2.389333 3.413333 4.949333 1.024 9.045333 3.754667 12.458667 7.168 4.608 4.608 9.045333 9.386667 12.970667 14.506667 6.144 8.021333 11.946667 16.384 17.92 24.405333 17.066667 22.528 34.816 44.544 50.688 67.925334 1.194667 1.706667 2.730667 2.730667 4.608 3.413333 31.232 13.312 63.829333 17.408 97.28 11.776 39.936-6.656 73.557333-25.088 101.034666-54.954667 0.853333-0.853333 1.706667-1.877333 2.56-3.072l0.170667 0.341334z m241.322667 290.816c-2.389333-3.584-4.949333-6.826667-6.997334-10.24l-36.352-57.344c-1.024-1.536-2.048-3.242667-2.56-4.949334a9.898667 9.898667 0 0 1 0-5.461333c0.853333-3.072 3.072-4.778667 6.314667-5.12 3.584-0.341333 6.144 1.194667 8.192 4.266667l18.944 29.696c6.656 10.581333 13.312 20.992 19.968 31.573333 0.682667 1.194667 1.706667 2.218667 2.389333 3.072 5.461333-2.901333 33.450667-30.208 36.693334-35.84a50.858667 50.858667 0 0 0-2.389334-4.096c-12.970667-21.504-24.917333-43.52-35.669333-66.218667-6.144-12.8-13.141333-25.088-19.797333-37.546666-0.682667-1.365333-1.706667-2.730667-2.730667-4.266667-1.024 1.024-1.877333 1.706667-2.56 2.389333-12.288 12.288-25.258667 23.722667-38.912 34.304-16.213333 12.458667-32.768 24.576-49.152 36.864-10.069333 7.509333-20.650667 14.336-31.744 20.138667-2.048 1.024-4.096 2.389333-6.144 3.413333-1.365333 0.682667-1.877333 1.706667-1.877333 3.413334 0 3.413333 0 6.656-0.341334 10.069333-1.365333 16.384-9.216 29.013333-22.186666 38.570667-8.192 5.973333-17.066667 10.24-26.624 13.653333-1.194667 0.341333-2.218667 1.024-3.413334 1.536 24.917333 27.989333 52.053333 53.077333 79.189334 77.482667 44.032-19.968 83.456-45.909333 118.272-79.36h-0.512z m-61.952-164.522667c-1.194667-1.365333-2.048-2.218667-2.901334-3.242667-3.072-3.242667-6.314667-6.485333-9.216-10.069333-8.021333-9.728-16.042667-19.626667-23.722666-29.696-25.429333-32.426667-48.981333-66.048-69.461334-101.888-1.024-1.706667-1.877333-3.754667-2.389333-5.802667-0.853333-3.754667 1.024-7.338667 4.437333-8.362666 3.413333-1.194667 6.826667 0.341333 8.874667 3.754666 1.024 1.877333 2.048 3.584 3.242667 5.290667 3.925333 5.973333 8.192 11.946667 11.946666 17.92 18.944 29.525333 38.912 58.197333 60.757334 85.504 9.216 11.605333 18.090667 23.381333 28.672 33.792 1.024 1.024 2.218667 2.048 3.413333 3.072 6.656-4.778667 12.970667-9.386667 18.944-14.677333a12.629333 12.629333 0 0 0 4.437333-10.581334c-0.170667-7.168-1.365333-14.165333-3.925333-20.821333-5.632-15.36-12.8-29.866667-21.504-43.690667-10.922667-17.237333-23.210667-33.621333-35.84-49.664-19.626667-24.746667-39.594667-48.981333-61.098667-72.021333-1.365333-1.536-3.242667-2.730667-4.437333-4.437333-4.949333-7.168-11.605333-11.093333-20.309333-11.946667-2.389333-0.170667-4.266667 0.170667-6.144 1.877333-4.949333 4.266667-9.898667 8.362667-14.848 12.629334-2.730667 2.389333-2.901333 2.901333-1.194667 6.144 2.048 3.925333 4.096 7.850667 6.485333 11.605333l17.408 28.16c2.389333 3.925333 2.048 7.850667-0.853333 10.410667-2.901333 2.56-7.338667 2.56-10.752-0.512-1.536-1.365333-2.730667-2.901333-3.754667-4.437334-5.632-9.557333-11.434667-19.114667-16.896-28.842666-1.706667-3.072-3.242667-6.485333-4.949333-9.898667-1.024 0.682667-1.877333 1.194667-2.730667 1.877333-5.973333 5.973333-12.288 11.776-18.090666 17.92-2.56 2.730667-4.778667 5.973333-6.826667 9.216-2.218667 3.584-3.072 7.68-3.072 11.946667 0 6.656 1.536 12.970667 3.754667 18.944 5.802667 15.530667 14.165333 29.866667 23.381333 43.52 12.288 18.090667 24.917333 35.84 38.4 53.077333 15.872 20.48 32.085333 40.448 49.834667 59.221334 3.072 3.242667 6.656 6.144 10.24 8.874666 4.437333 3.413333 9.386667 4.437333 14.848 2.901334 2.389333-0.682667 4.778667-1.194667 6.997333-2.048 8.533333-3.072 16.213333-7.509333 23.893333-12.288l5.12-3.413334-0.170666 0.682667z m-118.272 31.744c-0.853333-2.218667-1.194667-3.584-1.706667-4.949333-8.362667-22.186667-16.896-44.544-25.258667-66.730667-3.925333-10.410667-3.754667-10.752-12.8-17.408-4.437333-3.242667-9.386667-5.632-13.994666-8.362667-1.706667-1.024-3.072-0.682667-4.266667 0.682667-0.682667 0.682667-1.365333 1.194667-2.048 1.877333-13.482667 11.434667-27.648 21.504-43.690667 29.184-14.165333 6.826667-28.842667 11.434667-44.885333 11.605334-0.853333 0-1.536 0.170667-2.730667 0.341333l0.512 3.413333c2.218667 8.192 4.437333 16.384 6.485334 24.576 4.096 16.725333 8.362667 33.28 13.994666 49.664 0.512 1.536 1.194667 2.901333 1.706667 4.608 41.301333-16.896 84.138667-25.6 128.853333-28.330666l-0.170666-0.170667z m-112.128 71.68c1.194667 2.56 2.048 4.608 3.072 6.656 4.437333 9.216 9.216 18.261333 15.530666 26.453333 7.338667 9.386667 16.896 15.018667 28.330667 17.92 9.386667 2.389333 18.944 2.389333 28.330667 0.682667 15.189333-2.901333 29.354667-8.192 41.642666-17.578667 8.874667-6.656 13.824-15.701333 14.506667-27.136 0.512-7.850667-0.170667-15.530667-1.877333-23.210666-0.853333-3.754667-1.877333-7.338667-2.730667-11.434667-43.178667 5.12-84.650667 16.213333-126.634667 27.648h-0.170666z m317.269333 97.621333c-1.365333 1.365333-2.218667 2.218667-3.072 3.242667-4.778667 5.12-9.216 10.581333-14.336 15.189333-18.261333 16.896-37.888 31.914667-60.074667 43.178667-8.021333 4.096-16.213333 8.021333-24.234666 12.117333-0.682667 0.341333-1.365333 0.853333-2.389334 1.536 0.853333 0.682667 1.365333 1.194667 1.877334 1.536 5.461333 3.584 11.093333 6.656 17.237333 9.045334 6.485333 2.389333 12.970667 3.413333 19.797333 2.56 5.632-0.682667 10.922667-2.048 16.042667-4.266667 12.288-5.290667 23.722667-12.117333 34.645333-19.968 7.168-5.12 13.141333-11.776 18.261334-19.114667 1.877333-2.730667 3.413333-5.802667 4.778666-8.874666 1.877333-4.266667 2.389333-8.874667 1.194667-13.653334-1.877333-8.021333-5.632-15.189333-9.898667-22.869333l0.170667 0.341333z m-257.706667-311.637333c-7.509333 6.656-14.506667 13.141333-21.845333 19.456-7.338667 6.144-15.36 11.264-23.552 16.042667-8.362667 4.778667-17.066667 9.045333-26.112 12.458666-8.874667 3.413333-17.92 6.485333-27.306667 8.192-9.386667 1.877333-18.773333 3.242667-28.842666 4.949334 1.706667 1.365333 2.730667 2.389333 4.096 3.242666 11.776 7.850667 24.746667 9.386667 38.4 6.997334 14.336-2.56 27.306667-8.533333 39.594666-15.872 19.114667-11.605333 35.669333-26.282667 51.029334-42.496 0.512-0.512 0.853333-1.194667 1.536-2.048-2.389333-3.754667-4.608-7.338667-6.826667-10.922667h-0.170667z m-71.338666 185.002667c2.048 5.461333 3.754667 10.581333 6.314666 15.530666 41.472-14.336 83.968-23.210667 127.488-29.866666-1.024-3.242667-1.877333-6.144-2.901333-9.216-1.024-2.901333-1.024-3.072-4.266667-2.901334-6.656 0.341333-13.482667 0.853333-20.138666 1.365334-12.629333 1.024-25.088 2.901333-37.546667 5.461333-22.016 4.437333-43.690667 10.922667-65.024 17.92-1.194667 0.341333-2.389333 1.024-3.754667 1.536l-0.170666 0.170667z m198.314666 180.736c3.584 3.072 6.485333 5.461333 9.216 8.021333 2.218667 2.218667 4.266667 2.56 6.997334 1.024 10.069333-5.461333 20.309333-10.752 30.549333-16.042667 26.794667-14.336 50.517333-32.768 70.314667-55.808 1.536-1.706667 2.901333-3.584 4.437333-5.461333-2.048-3.072-3.925333-5.802667-5.973333-8.704-17.578667 15.701333-35.157333 30.549333-54.272 43.349333-19.114667 12.970667-39.082667 24.064-61.098667 33.621334h-0.170667z m-16.042666-227.669334c-1.024-0.512-1.706667-0.512-2.218667-0.853333-4.266667-3.925333-8.704-7.509333-12.458667-11.605333-8.362667-9.216-16.554667-18.944-24.746666-28.330667-1.024-1.024-2.048-2.218667-3.242667-3.413333-0.512 1.024-0.853333 1.706667-1.024 2.389333-2.218667 5.290667-4.266667 10.581333-6.485333 15.701333-1.024 2.389333-1.024 4.266667-0.170667 6.656 5.12 13.653333 9.898667 27.477333 15.018667 41.301334 0.341333 0.682667 0.682667 1.365333 1.365333 2.56 10.922667-8.192 22.528-15.018667 34.133333-24.064l-0.170666-0.341334z m-25.088 57.002667c12.288-5.12 95.232-66.901333 101.888-75.946667-1.536 1.024-2.56 1.536-3.413334 2.048-9.216 6.314667-18.773333 12.117333-28.842666 16.896-8.192 3.754667-16.554667 6.826667-25.770667 6.826667-1.706667 0-3.072 0.853333-4.266667 2.048-6.826667 5.973333-13.994667 11.093333-21.674666 15.872-6.826667 4.096-13.824 8.192-20.650667 12.458667-0.682667 0.341333-1.194667 0.853333-1.877333 1.536 1.536 6.144 3.072 12.288 4.778666 18.602666l-0.170666-0.341333z m195.925333 128.682667c7.509333-4.266667 14.848-8.874667 20.309333-15.701334 1.706667-2.218667 3.072-4.949333 3.754667-7.68 2.730667-10.410667 1.024-20.48-2.218667-30.378666 0-0.512-0.512-0.853333-1.024-1.536-1.024 1.024-1.877333 1.706667-2.730666 2.56-4.949333 4.437333-9.898667 9.045333-15.018667 13.482666l-13.312 11.264c-1.024 0.853333-1.877333 1.877333-2.56 2.56 4.437333 8.704 8.533333 16.896 12.970667 25.6l-0.170667-0.170666z m-21.845333-37.717334c1.194667-1.024 2.048-1.877333 2.901333-2.56 6.314667-5.802667 12.629333-11.605333 18.944-17.578666l11.776-11.264c0.853333-0.853333 1.877333-1.706667 1.194667-2.901334-2.048-3.754667-4.266667-7.68-6.826667-11.946666-11.093333 12.970667-23.893333 23.04-36.864 33.450666 2.901333 4.266667 5.802667 8.362667 8.874667 12.8zM523.264 521.045333c0.512-0.853333 0.853333-1.194667 0.853333-1.706666 0.682667-5.12 1.194667-10.069333 1.706667-15.189334 0-0.853333-0.512-1.706667-1.024-2.56-3.584-4.608-6.997333-9.216-10.581333-13.824-0.341333-0.341333-0.853333-0.682667-1.365334-1.365333-0.682667 2.389333-1.194667 4.437333-0.341333 6.656 3.072 8.192 6.144 16.384 9.216 24.405333 0.341333 1.024 1.024 2.048 1.706667 3.413334l-0.170667 0.170666z m-42.837333-60.586666q0.853333 0.682667 1.194666 0.853333c6.656 2.901333 12.970667 6.656 18.602667 11.434667 0.682667 0.512 1.706667 0.853333 3.072 1.365333-1.536-3.754667-13.482667-20.138667-15.530667-21.674667-2.218667 2.218667-4.266667 4.437333-6.485333 6.656-0.341333 0.341333-0.512 0.682667-0.682667 1.194667l-0.170666 0.170667zM391.68 752.810667c-1.536 0-3.584-1.536-5.461333-3.584l-13.653334-17.237334c-45.397333-57.344-90.794667-114.688-136.021333-172.032-0.853333-1.194667-1.877333-2.389333-2.730667-3.584-1.877333-3.413333-1.194667-7.850667 1.877334-10.069333 3.072-2.389333 7.338667-2.218667 10.24 0.682667 1.706667 1.706667 3.242667 3.754667 4.608 5.632l146.944 185.856c0.853333 1.194667 1.877333 2.389333 2.56 3.754666 2.389333 5.12-1.365333 10.752-8.362667 10.922667v-0.341333zM332.288 51.2c32.085333 0.341333 61.098667 5.461333 88.746667 17.408 13.482667 5.802667 25.941333 13.141333 37.205333 22.357333 1.536 1.194667 3.072 2.56 4.266667 4.096 2.56 2.901333 2.56 6.997333 0 9.898667-2.56 2.901333-6.656 3.584-10.069334 1.536a5.341867 5.341867 0 0 1-1.877333-1.536c-15.36-13.482667-33.109333-22.186667-52.394667-28.330667-16.042667-5.12-32.426667-8.192-49.152-9.386666-23.722667-1.706667-47.104 0.341333-69.973333 7.168-13.824 4.096-26.794667 9.898667-38.570667 18.261333-1.536 1.024-3.242667 1.877333-5.12 2.048a6.656 6.656 0 0 1-7.338666-4.096 7.509333 7.509333 0 0 1 1.024-8.533333c1.194667-1.365333 2.730667-2.389333 4.266666-3.584 13.312-9.216 27.989333-15.530667 43.52-19.968 14.336-4.096 29.013333-6.485333 43.861334-7.168 4.437333-0.170667 8.874667-0.512 11.264-0.512l0.341333 0.341333zM628.565333 86.186667q2.048 1.024 3.242667 1.877333c2.218667 1.706667 4.266667 3.584 6.656 5.12 12.288 7.850667 24.917333 9.045333 37.717333 1.194667 3.754667-2.218667 6.485333-1.706667 8.874667 1.365333 1.706667 2.389333 1.877333 4.266667 0 6.656-0.341333 0.512-0.682667 0.853333-1.024 1.365333-9.216 10.922667-10.069333 23.04-4.608 35.84 1.365333 3.072 3.242667 5.973333 4.778667 8.874667 1.194667 2.218667 1.536 4.437333 0 6.485333-2.730667 4.096-6.314667 4.437333-9.728 0.853334-4.437333-4.949333-9.728-8.704-16.042667-10.581334-8.533333-2.56-16.725333-1.706667-24.576 2.56-1.194667 0.682667-2.218667 1.365333-3.242667 1.877334-3.072 1.706667-5.632 1.365333-7.68-1.194667-2.048-2.389333-2.218667-4.778667 0-7.509333 3.242667-3.754667 5.802667-7.850667 7.168-12.629334 3.242667-10.581333 1.194667-20.138667-4.778666-29.184-0.853333-1.194667-1.706667-2.218667-2.56-3.242666-1.365333-1.706667-1.877333-3.754667-1.024-5.802667 0.853333-1.877333 4.096-3.925333 6.997333-3.925333h-0.170667zM448.170667 840.362667c-0.512 0.853333-1.365333 2.389333-2.389334 3.754666-3.584 4.437333-6.144 9.216-7.338666 14.848-1.536 7.68 0 14.848 3.072 21.674667 1.194667 2.730667 2.901333 5.290667 4.437333 7.850667 1.706667 3.072 1.536 5.12-0.512 7.68-2.730667 3.242667-5.632 3.242667-8.704 0.341333-2.048-2.048-4.096-4.266667-6.314667-5.973333-11.264-8.021333-23.210667-8.704-35.498666-2.218667-0.853333 0.512-1.706667 1.024-2.730667 1.536-3.072 1.706667-5.290667 1.365333-7.509333-1.024-2.218667-2.56-2.389333-5.12 0-7.850667 4.096-4.778667 6.997333-10.069333 8.192-16.384 1.706667-9.386667-0.682667-17.92-6.144-25.770666-0.853333-1.194667-1.706667-2.218667-2.56-3.242667-1.706667-2.389333-1.536-4.778667 0-6.656 2.218667-2.56 5.290667-3.413333 7.850666-2.048 1.024 0.682667 2.048 1.536 3.072 2.389333 4.778667 4.096 9.898667 7.168 16.042667 9.045334 8.874667 2.56 17.237333 1.706667 25.258667-2.901334 1.194667-0.682667 2.218667-1.365333 3.242666-1.877333 3.925333-1.706667 8.704 1.706667 8.533334 6.656v0.170667zM802.304 856.064c2.389333 0 4.437333 1.706667 6.314667 3.925333 5.12 6.314667 10.24 12.629333 15.530666 18.944 16.725333 20.48 33.450667 40.789333 50.176 61.269334 1.024 1.194667 2.048 2.56 2.901334 3.925333 2.218667 3.584 1.536 8.021333-1.536 10.410667-2.901333 2.389333-7.168 2.218667-10.24-0.512-0.682667-0.682667-1.365333-1.536-2.048-2.389334-22.186667-27.136-44.373333-54.101333-66.389334-81.237333-0.853333-1.024-1.536-2.048-2.218666-3.072-2.56-5.290667 1.024-11.093333 7.68-11.093333l-0.170667-0.170667zM795.818667 125.781333c-10.581333 0-19.285333-8.704-19.114667-19.285333 0-10.581333 8.533333-18.944 19.114667-18.944 10.752 0 19.285333 8.533333 19.114666 19.285333 0 10.581333-8.533333 18.944-19.114666 18.944z m0-10.24c5.12 0 9.045333-3.754667 9.216-8.874666 0-5.12-3.925333-9.045333-9.045334-9.045334-4.778667 0-8.874667 4.096-9.045333 8.874667 0 4.949333 3.754667 9.045333 8.874667 9.045333zM157.696 740.352c0 10.581333-8.362667 19.114667-18.773333 19.285333-10.581333 0-19.456-8.533333-19.456-19.114666 0-10.752 8.533333-19.285333 19.285333-19.285334 10.581333 0 18.944 8.362667 19.114667 18.944l-0.170667 0.170667z m-19.114667-8.874667c-4.949333 0-9.045333 4.266667-9.045333 9.216 0 4.778667 4.096 8.874667 8.874667 8.874667 4.949333 0 9.045333-3.925333 9.216-9.045333 0-5.12-3.925333-9.045333-9.045334-9.045334z" fill="#000000" p-id="8835"></path><path d="M292.522667 427.690667c-10.24-0.341333-19.114667-4.096-26.965334-10.752-1.706667-1.536-3.413333-3.072-4.949333-4.949334-14.677333-17.408-29.013333-34.986667-40.789333-54.613333-2.048-3.584-3.413333-7.338667-3.754667-11.434667-0.341333-5.461333 0.853333-10.410667 4.608-14.506666 9.898667-10.752 20.821333-20.650667 33.450667-28.330667 4.437333-2.730667 9.045333-4.778667 14.336-4.949333 8.192-0.341333 15.189333 2.56 21.162666 8.021333 7.850667 7.168 15.189333 14.848 21.674667 23.210667 9.045333 11.605333 17.237333 23.722667 24.746667 36.352 1.877333 3.242667 3.584 6.485333 5.12 9.898666 3.754667 8.874667 2.901333 17.237333-2.56 25.088-7.850667 11.434667-18.432 19.456-31.573334 24.064-4.608 1.536-9.216 3.072-14.336 2.901334h-0.170666z m0.170666-15.872c0.853333 0 2.048-0.170667 3.242667-0.512 8.874667-2.048 16.725333-6.144 23.210667-12.458667 2.218667-2.218667 4.096-4.608 5.973333-7.168 2.218667-3.072 2.730667-6.485333 1.024-9.898667-1.536-3.072-2.901333-6.314667-4.778667-9.216-6.997333-10.581333-14.165333-21.333333-21.504-31.744-5.973333-8.362667-13.312-15.872-20.992-22.698666-5.461333-4.949333-9.728-5.290667-16.213333-1.706667-1.536 0.853333-3.242667 1.877333-4.778667 3.072-7.850667 6.144-15.701333 12.288-23.552 18.602667-1.024 0.853333-2.218667 2.218667-2.389333 3.584-0.512 2.730667-0.341333 5.461333 1.365333 8.021333l3.584 5.632c10.24 16.042667 22.186667 30.72 34.304 45.226667 1.877333 2.218667 4.266667 4.266667 6.656 6.144 4.266667 3.242667 9.216 4.949333 14.677334 5.290666l0.170666-0.170666z" fill="#000000" p-id="8836"></path></svg>