<?xml version="1.0" standalone="no"?><!DOCTYPE svg PUBLIC "-//W3C//DTD SVG 1.1//EN" "http://www.w3.org/Graphics/SVG/1.1/DTD/svg11.dtd"><svg t="1751767596791" class="icon" viewBox="0 0 1024 1024" version="1.1" xmlns="http://www.w3.org/2000/svg" p-id="6940" xmlns:xlink="http://www.w3.org/1999/xlink" width="200" height="200"><path d="M546.133333 255.317333c4.266667-0.853333 8.021333-1.536 11.946667-2.218666 9.045333-1.706667 17.92-1.877333 26.794667 1.194666 6.314667 2.218667 11.946667 5.632 17.066666 9.898667 16.213333 12.970667 29.184 28.672 40.618667 45.738667 4.778667 6.997333 9.216 14.336 13.653333 21.504 0.170667 0.341333 0.512 0.512 0.512 0.853333 0.512 3.413333 3.242667 4.437333 5.802667 5.802667 19.114667 9.557333 38.229333 19.114667 57.344 28.842666 11.093333 5.632 21.674667 12.458667 30.72 20.821334 3.754667 3.584 7.509333 7.338667 10.752 11.434666 8.362667 10.24 12.288 22.186667 12.458667 35.498667 0.341333 25.941333-9.898667 46.933333-29.013334 63.829333-3.925333 3.413333-8.362667 6.144-12.970666 9.386667 0.512 0.853333 1.024 1.706667 1.706666 2.56 8.192 10.752 16.725333 21.504 24.746667 32.426667 9.898667 13.482667 19.797333 26.965333 29.354667 40.789333 15.018667 21.504 29.184 43.690667 39.424 68.096 3.925333 9.557333 7.509333 19.285333 8.874666 29.525333 1.877333 12.8 0 24.917333-8.192 35.328-15.872 20.650667-36.352 34.304-62.634666 38.4-4.096 0.682667-8.362667 0.682667-12.458667 0.853334h-3.242667c-0.512 1.365333-1.024 2.56-1.365333 3.754666-1.536 6.144-4.608 11.605333-8.704 16.554667-11.434667 13.653333-25.088 24.576-42.325333 30.037333-8.533333 2.730667-17.408 3.072-26.282667 2.048-16.384-1.706667-30.549333-8.533333-43.349333-18.602666-17.749333-13.994667-33.621333-29.696-48.469334-46.592-18.432-21.162667-36.864-42.496-55.296-63.829334-0.682667-0.682667-1.024-1.536-1.706666-2.218666-1.536 0.853333-2.56 1.365333-3.413334 1.877333-11.605333 6.485333-24.064 11.264-37.376 12.288-20.650667 1.536-39.082667-4.266667-55.466666-17.408-13.312-10.752-22.016-24.234667-27.477334-40.277333-5.290667-15.36-9.386667-30.890667-12.288-46.762667-2.56-13.824-5.12-27.648-7.338666-41.472-1.365333-8.704-2.389333-17.578667-3.242667-26.282667-1.024-9.898667-1.706667-19.626667-2.389333-29.525333-0.341333-4.949333-0.341333-10.069333-0.512-15.018667 0-3.072 0-3.072-2.730667-3.925333-11.093333-3.413333-20.309333-9.557333-26.794667-19.456-1.024-1.536-2.218667-1.706667-3.754666-1.877333-37.205333-3.242667-70.826667-16.042667-100.352-38.912-37.034667-28.672-60.586667-66.218667-70.485334-112.128-6.656-30.549333-5.461333-61.098667 3.072-91.136 19.626667-67.754667 72.192-114.688 132.266667-131.584 21.333333-5.973333 43.008-8.362667 64.853333-6.656 51.541333 4.096 94.890667 25.258667 129.536 63.829333 23.552 26.282667 38.229333 57.002667 44.885334 91.477333 1.706667 8.874667 2.730667 17.92 3.072 26.965334 0 1.194667 0.170667 2.56 0.341333 4.096l-0.170667 0.170666z m-364.885333 19.968q0.853333-0.512 1.024-0.682666c0-0.512 0.170667-0.853333 0.341333-1.365334 1.706667-10.24 4.437333-20.138667 9.045334-29.525333 15.872-32.256 41.813333-50.346667 77.482666-54.101333 23.210667-2.389333 45.397333 2.730667 66.048 13.653333 34.304 18.090667 58.368 45.568 72.704 81.408 9.728 24.576 12.970667 50.005333 7.509334 75.946667-6.997333 33.109333-25.258667 57.685333-56.832 71.509333-0.512 0.170667-1.024 0.682667-1.536 1.024 0 0.170667 0.170667 0.512 0.341333 0.682667 27.477333-0.170667 53.418667-6.656 77.824-19.285334 35.498667-18.432 61.952-45.738667 78.677333-82.090666 33.450667-72.192 14.165333-157.866667-47.957333-208.554667-61.781333-50.688-150.186667-52.906667-214.357333-5.290667-31.744 23.552-53.248 54.442667-64.341334 92.501334a169.0112 169.0112 0 0 0-5.973333 64.170666z m336.213333 372.224c1.194667 1.365333 2.048 2.389333 2.901334 3.413334 5.632 6.144 11.264 12.288 16.725333 18.602666 20.48 23.381333 40.789333 46.762667 61.098667 70.144 3.242667 3.754667 3.413333 3.754667 7.850666 1.877334 1.706667-0.682667 3.413333-1.536 5.12-2.389334 3.584-1.706667 6.997333-3.754667 10.581334-5.290666 16.725333-7.168 30.549333-18.602667 43.008-31.573334 0.341333-0.341333 0.512-0.682667 0.853333-1.194666-0.853333-0.853333-1.536-1.706667-2.389333-2.56l-31.573334-32.597334c-1.706667-1.706667-3.242667-3.754667-4.266666-5.802666-1.706667-3.242667-0.512-7.168 2.389333-8.874667 2.730667-1.877333 6.656-1.194667 9.216 1.365333 1.024 1.024 2.048 2.218667 3.242667 3.242667 11.605333 9.728 22.357333 20.48 32.597333 31.573333 0.853333 0.853333 1.877333 1.706667 2.730667 2.730667 1.024-0.512 2.048-0.853333 2.901333-1.365333 12.458667-6.826667 24.746667-14.336 35.669333-23.552 8.704-7.509333 17.408-15.018667 25.941334-22.869334 11.776-11.093333 23.381333-22.528 34.986666-33.962666 1.706667-1.706667 3.072-3.754667 4.778667-5.632-1.024-1.536-1.877333-2.901333-2.730667-4.096-7.509333-10.410667-15.189333-20.821333-22.698666-31.402667-11.434667-16.384-23.381333-32.426667-36.010667-47.957333-1.024-1.365333-2.389333-2.56-3.413333-3.925334a3.259733 3.259733 0 0 0-3.413334-1.194666c-6.144 1.536-12.288 2.048-18.602666 2.218666-0.853333 0-2.048 0.512-2.730667 1.024-2.218667 2.048-4.266667 4.266667-6.656 6.144-17.92 15.872-36.181333 31.402667-55.637333 45.397334-23.04 16.896-46.421333 33.450667-69.802667 49.664-13.141333 9.216-26.624 17.749333-40.106667 26.624-0.682667 0.512-1.536 1.024-2.730666 1.877333l0.170666 0.341333z m102.912-176.64c1.024-0.853333 1.877333-1.536 2.730667-2.389333 2.389333-2.730667 4.778667-5.290667 6.997333-8.192 18.432-25.258667 33.621333-52.394667 43.690667-82.090667 1.365333-3.754667 2.218667-7.850667 2.901333-11.776 0.682667-3.413333 0.341333-3.584-2.730666-4.949333-24.234667-11.605333-48.469333-23.04-72.704-34.816-2.218667-1.024-3.925333-1.365333-6.314667-0.341333-1.365333 0.682667-3.072 1.024-4.778667 1.024-8.533333 0.512-15.36 4.437333-21.162666 10.24-13.312 13.141333-22.186667 29.013333-25.258667 47.445333-2.048 12.629333 0 24.746667 7.68 35.498667 1.877333 2.389333 3.754667 4.608 6.314667 6.314666 8.704 5.973333 17.408 12.117333 25.941333 18.261334 10.752 7.68 21.333333 15.36 31.914667 23.04 1.365333 1.024 2.901333 1.877333 4.437333 2.901333l0.341333-0.170667z m-141.141333 132.949334c2.389333-1.194667 4.608-2.048 6.656-3.242667 10.581333-6.314667 21.333333-12.288 31.573333-19.114667 38.570667-25.770667 75.093333-54.272 110.421334-84.650666 0.512-0.341333 0.853333-1.024 1.194666-1.706667-4.778667-2.901333-9.557333-5.632-14.165333-8.704-10.752-7.338667-21.333333-14.848-32.085333-22.357333-1.024-0.682667-2.389333-1.536-3.754667-1.536-3.072 0-6.314667 0-9.386667 0.341333-8.362667 0.853333-16.725333 0.341333-24.576-3.072-16.896-7.168-31.232-17.578667-42.837333-32.085333-0.853333-1.024-1.706667-2.048-2.730667-3.413334-13.824 12.117333-28.330667 22.357333-44.202666 30.72-15.872 8.362667-32.597333 14.506667-50.858667 17.408 0.512 1.706667 0.853333 3.072 1.365333 4.266667l9.728 23.552c2.56 6.144 5.290667 12.117333 9.045334 17.578667 2.730667 3.925333 5.12 8.021333 7.509333 12.117333 13.653333 23.722667 27.818667 46.933333 44.032 69.12 1.024 1.365333 1.877333 2.56 3.072 4.266667v0.512z m178.005333-112.810667c1.706667 0.853333 2.56 1.365333 3.584 1.706667 6.656 2.048 13.141333 4.437333 19.968 6.144 13.653333 3.413333 26.965333 2.218667 39.765334-3.584 17.749333-8.021333 28.842667-22.186667 34.816-40.448 2.901333-8.874667 3.242667-18.090667 2.048-27.136-1.365333-9.557333-6.485333-17.237333-13.141334-24.064-6.144-6.314667-13.141333-11.434667-20.48-16.042667a16.64 16.64 0 0 0-2.389333-1.024c-12.458667 40.277333-31.573333 76.288-64.170667 104.618667v-0.170667z m15.530667 22.869333c-1.536-0.512-2.56-0.853333-3.584-1.365333-6.826667-2.389333-13.653333-4.778667-20.309333-7.509333-2.730667-1.194667-4.437333-0.853333-6.485334 0.853333-9.216 7.850667-18.602667 15.36-27.989333 23.210667-27.818667 23.210667-56.832 44.544-86.698667 65.024-11.946667 8.192-24.917333 15.018667-38.058666 21.162666-4.096 1.877333-5.802667 5.461333-4.096 9.557334 2.048 4.949333 4.949333 9.216 8.533333 13.141333 1.194667 1.365333 2.389333 1.706667 4.096 0.853333 2.901333-1.365333 6.144-2.389333 8.874667-4.096 7.850667-4.608 15.530667-9.216 23.04-14.336 20.821333-14.336 41.472-28.842667 62.122666-43.178666 26.965333-18.773333 52.906667-39.082667 77.824-60.757334 0.853333-0.682667 1.706667-1.536 2.901334-2.730666l-0.170667 0.170666z m135.850667 135.850667a319.317333 319.317333 0 0 1-94.549334 73.386667l1.536 1.536c5.461333 4.096 11.264 7.850667 17.578667 10.752 10.410667 4.949333 21.162667 5.973333 32.256 3.925333 20.309333-3.754667 36.181333-14.677333 48.981333-30.378667 3.754667-4.608 6.314667-9.898667 6.485334-15.872 0-4.096-0.170667-8.362667-1.024-12.458666-1.877333-10.24-5.973333-19.797333-10.24-29.184-0.170667-0.512-0.682667-0.853333-1.024-1.536v-0.170667z m-170.666667 126.976q0.853333 1.194667 1.024 1.365333c7.68 5.973333 16.042667 10.752 25.6 12.970667s19.285333 3.072 28.842667 0c14.677333-4.949333 25.770667-14.506667 35.157333-26.282667 1.024-1.194667 1.877333-2.730667 2.56-4.096 1.194667-2.389333 2.048-4.778667 2.218667-7.68-12.288-4.266667-22.698667-11.605333-33.28-19.626666-7.68 10.752-17.578667 18.602667-27.989334 25.770666-10.410667 7.338667-21.845333 13.312-34.304 17.749334l0.170667-0.170667zM413.013333 624.981333c6.144 22.016 19.114667 37.888 40.106667 46.421334 20.650667 8.362667 40.106667 4.096 59.050667-6.826667l-7.850667-10.752c-0.853333 0.170667-2.218667 0.512-3.413333 0.853333-5.973333 1.706667-11.434667 0.512-16.213334-3.413333-3.242667-2.730667-5.973333-5.973333-7.850666-9.728-2.389333-4.437333-4.437333-8.874667-6.826667-13.482667-9.216 0.170667-18.773333 1.024-28.16 0.512-9.557333-0.512-18.944-2.389333-28.842667-3.584zM364.885333 450.56c2.389333 2.048 4.949333 3.072 7.509334 4.096 8.874667 3.413333 18.261333 3.584 27.477333 2.56 11.946667-1.194667 23.210667-4.608 34.133333-9.386667 34.474667-14.848 62.464-37.717333 84.821334-67.754666 8.874667-11.946667 16.042667-24.746667 20.48-38.912 2.901333-9.386667 4.778667-18.944 3.242666-28.842667-0.341333-2.218667-0.341333-4.437333-1.706666-6.144-3.413333 9.557333-6.656 19.114667-10.410667 28.501333-3.754667 9.386667-8.704 18.261333-13.994667 26.794667-5.461333 8.533333-11.434667 16.725333-18.261333 24.234667-6.656 7.68-13.994667 14.677333-21.845333 20.992-7.850667 6.485333-16.213333 12.288-25.088 17.578666-8.704 5.12-17.92 9.557333-27.306667 13.141334-9.386667 3.584-19.114667 6.656-29.013333 8.533333-9.898667 1.877333-19.797333 3.072-30.208 4.608h0.170666z m324.266667 251.392l8.021333 7.509333c0.682667 0.682667 1.536 1.365333 2.389334 2.048 1.024 0.853333 1.877333 0.341333 2.901333 0 3.584-1.877333 7.338667-3.584 10.922667-5.632 20.821333-11.776 40.277333-25.770667 58.368-41.472a206.506667 206.506667 0 0 0 27.306666-28.672c1.194667-1.536 1.536-2.901333 0.341334-4.608-1.706667-2.56-3.242667-5.461333-4.778667-8.021333-1.024-1.706667-2.218667-3.413333-3.413333-5.461333-0.682667 0.682667-1.194667 0.853333-1.536 1.365333-16.896 17.578667-34.816 34.133333-53.077334 50.346667-13.824 12.288-28.501333 23.552-45.397333 31.402666a10.581333 10.581333 0 0 0-2.048 1.365334v-0.170667z m-58.368-379.221333q0.341333-0.341333 0.682667-0.512c-0.512-1.024-1.024-2.048-1.706667-2.901334-4.608-6.314667-9.045333-12.629333-13.994667-18.773333-7.168-9.045333-15.36-17.066667-24.405333-24.234667-7.338667-5.973333-15.701333-8.874667-25.258667-8.021333-3.754667 0.341333-7.68 0.853333-11.434666 1.194667-2.901333 0.341333-5.632 0.853333-8.704 1.194666-0.170667 1.877333-0.341333 3.242667-0.682667 4.778667-0.682667 3.925333-0.682667 7.68 3.072 10.24 0.682667 0.512 1.024 1.194667 1.536 1.877333 1.024 1.877333 2.218667 2.730667 4.437333 2.389334 1.194667 0 2.56 0.170667 3.754667 0.682666 6.656 2.56 13.482667 4.949333 20.138667 7.850667 11.946667 5.290667 23.722667 10.752 35.498666 16.213333 5.632 2.56 11.264 5.290667 17.066667 8.021334z m76.288 55.296c-4.778667-2.56-9.386667-4.949333-14.336-7.338667-0.341333 1.194667-0.682667 2.048-1.024 2.901333-1.024 3.754667-2.048 7.338667-3.242667 11.093334-8.021333 23.893333-19.626667 45.909333-32.938666 67.072-5.973333 9.386667-12.288 18.602667-20.48 26.282666-0.341333 0.341333-0.512 0.853333-1.024 1.706667 3.242667 1.706667 6.144 3.413333 9.216 4.949333l7.68-8.192c6.656-7.509333 13.824-14.848 19.968-22.869333 14.677333-18.773333 24.746667-40.106667 32.426666-62.464 1.365333-4.096 2.56-8.362667 3.925334-12.970667l-0.170667-0.170666z m-509.44-84.138667c0.512 3.242667 0.682667 5.802667 1.365333 8.192 1.024 3.584 4.096 5.632 7.509334 5.461333 3.584-0.170667 6.314667-2.901333 6.997333-6.656 0-0.853333 0.170667-1.706667 0-2.389333a13.824 13.824 0 0 1 1.024-7.850667c0.853333-2.048 1.706667-4.096 2.730667-5.973333 4.949333-9.386667 11.776-17.237333 19.797333-24.064 2.730667-2.389333 5.802667-4.096 8.704-6.314667 2.730667-2.048 4.266667-4.778667 3.413333-8.192-0.682667-3.413333-3.072-5.290667-6.314666-6.144a8.533333 8.533333 0 0 0-6.485334 0.512c-2.048 1.024-4.096 2.218667-5.973333 3.584-8.021333 5.973333-14.848 13.312-20.992 21.333334-3.925333 5.290667-6.997333 10.922667-9.045333 17.066666-1.365333 3.925333-2.048 8.021333-2.901334 11.434667h0.170667z m195.925333 238.250667c0 1.877333 0 2.901333 0.170667 4.096 1.365333 8.874667 2.901333 17.92 4.266667 26.794666 0.512 3.072 0.853333 6.314667 4.778666 6.826667q0.170667 0 0.341334 0.170667c2.048 1.877333 4.608 2.56 7.338666 3.072 8.874667 2.048 17.92 1.877333 26.965334 2.389333 0.682667 0 1.536-0.341333 2.218666-0.512-0.170667-0.512-0.170667-1.024-0.341333-1.194667-5.973333-10.24-12.117333-20.309333-18.090667-30.549333a4.744533 4.744533 0 0 0-3.242666-2.218667c-7.338667-1.536-14.165333-4.266667-20.821334-7.509333-0.853333-0.512-1.877333-0.853333-3.413333-1.536l-0.170667 0.170667z m283.648 180.736c-9.216 9.045333-18.432 18.090667-29.184 25.088-10.752 7.168-22.698667 12.117333-35.157333 17.237333 3.584 3.242667 6.656 6.144 9.728 9.045333 1.365333 1.365333 2.730667 1.365333 4.437333 0.682667 17.578667-7.68 34.133333-16.725333 48.810667-29.184 4.437333-3.754667 8.021333-8.362667 11.946667-12.970667-3.584-3.413333-6.997333-6.485333-10.581334-9.898666z m-274.773333-126.293334c1.536 6.826667 2.901333 12.970667 4.437333 18.944 0.170667 0.853333 1.024 1.877333 1.877334 2.218667 1.365333 0.682667 3.072 1.194667 4.608 1.365333 4.608 0.682667 9.216 1.024 13.824 1.706667 11.434667 1.706667 22.869333 1.877333 34.304 1.024 0.853333 0 1.706667-0.341333 2.56-0.512v-1.024c-4.096-5.802667-8.021333-11.605333-12.117334-17.408-0.853333-1.194667-2.048-1.365333-3.242666-1.365333h-12.8c-10.069333 0-20.138667-1.194667-29.866667-4.096-0.853333-0.341333-1.706667-0.341333-3.413333-0.682667l-0.170667-0.170667z m150.357333-141.141333c-6.656-6.997333-13.482667-13.653333-18.261333-21.845333-4.778667-8.362667-7.168-17.408-7.850667-27.648-5.802667 6.485333-10.922667 12.117333-16.213333 18.090666 1.024 1.536 1.877333 3.413333 3.072 4.608 10.410667 10.752 22.186667 19.456 35.669333 25.6 1.024 0.512 2.218667 0.853333 3.413334 1.194667h0.170666z m-145.066666 75.946667c0-1.024 0-1.194667-0.170667-1.365334-0.170667-0.512-0.512-1.024-0.853333-1.536-6.314667-10.069333-10.581333-21.162667-14.165334-32.426666-1.024-3.584-2.048-7.168-3.242666-10.581334-0.341333-0.853333-0.341333-1.877333-2.048-1.365333v2.56l1.024 9.386667c0.682667 8.021333 1.365333 16.213333 2.218666 24.234666 0 1.365333 0.512 2.901333 1.536 3.584 4.608 3.413333 9.728 5.632 15.530667 7.68l0.170667-0.170666z m151.552-197.973334c4.778667-3.072 9.386667-6.144 14.506666-9.386666-5.12-2.389333-9.898667-4.608-15.189333-6.144-0.170667 0.512-0.341333 0.682667-0.341333 0.853333 0.170667 4.608 0.341333 9.216 0.682666 13.824 0 0.170667 0.170667 0.341333 0.512 0.682667l-0.170666 0.170666zM102.4 244.053333c-0.170667-17.066667 1.194667-34.474667 6.314667-51.370666 1.365333-4.266667 2.901333-8.533333 4.778666-12.629334 1.877333-4.096 5.802667-5.632 9.557334-4.266666 3.584 1.365333 5.632 4.437333 5.12 8.192-0.170667 1.536-0.682667 2.901333-1.365334 4.266666-4.778667 11.776-7.168 24.064-8.021333 36.522667-2.56 34.645333 3.584 68.096 14.506667 100.693333 8.533333 25.941333 20.138667 50.517333 36.010666 72.874667 4.778667 6.656 10.24 12.970667 15.36 19.456 0.853333 1.024 1.877333 2.048 2.56 3.413333 1.706667 3.242667 0.853333 6.826667-1.706666 9.216-2.56 2.389333-6.314667 2.730667-9.386667 0.682667a13.8752 13.8752 0 0 1-3.242667-3.072c-15.018667-16.554667-26.794667-35.328-36.864-55.296a323.925333 323.925333 0 0 1-27.477333-79.018667c-3.584-16.042667-5.632-32.597333-6.144-49.664zM783.530667 202.581333c-0.853333-0.512-2.218667-1.024-3.413334-1.877333-1.194667-1.024-2.218667-2.389333-3.413333-3.413333-11.093333-10.410667-26.453333-12.117333-39.594667-4.437334-0.512 0.341333-1.024 0.682667-1.536 0.853334-3.413333 1.877333-5.802667 1.536-8.021333-1.024-2.218667-2.56-2.218667-4.949333 0.170667-7.850667 3.413333-4.096 5.973333-8.533333 7.509333-13.653333 2.730667-10.410667 0.512-19.797333-5.632-28.330667-0.682667-0.853333-1.365333-1.706667-1.877333-2.389333-2.218667-2.901333-2.389333-5.632-0.341334-7.509334 2.56-2.389333 5.461333-3.925333 9.045334-1.194666 2.389333 1.877333 4.608 3.925333 7.168 5.461333 12.288 7.850667 24.917333 8.874667 37.717333 1.024 3.413333-2.218667 5.973333-1.706667 8.362667 1.194667 2.218667 2.730667 2.218667 4.778667 0.170666 7.509333-0.341333 0.341333-0.512 0.682667-0.853333 1.024-9.045333 10.922667-10.069333 22.869333-4.608 35.669333 1.365333 3.242667 3.242667 6.144 4.949333 9.216 2.048 3.584 0.341333 8.021333-3.413333 9.557334-0.512 0.170667-1.194667 0.170667-2.389333 0.512v-0.341334zM250.88 595.626667c1.024 0.512 2.56 1.194667 3.925333 2.048 2.730667 1.877333 5.290667 4.266667 8.192 5.973333 11.946667 6.997333 23.893333 7.68 35.84 0.341333 3.925333-2.389333 6.314667-2.048 8.874667 1.194667 2.048 2.56 2.048 4.608 0 7.338667-0.341333 0.341333-0.512 0.682667-0.853333 1.024-9.386667 11.264-10.069333 23.552-4.437334 36.522666 1.194667 2.901333 3.072 5.461333 4.608 8.192 1.365333 2.389333 1.365333 4.608-0.170666 6.826667-2.901333 3.925333-6.144 4.266667-9.557334 0.682667-5.290667-5.802667-11.434667-9.898667-19.114666-11.264a31.402667 31.402667 0 0 0-21.845334 3.413333c-1.024 0.512-2.048 1.194667-3.072 1.706667-3.242667 1.877333-5.461333 1.536-7.68-1.194667-2.218667-2.56-2.218667-5.12 0-7.850667 4.096-4.949333 6.997333-10.410667 8.192-16.725333 1.536-8.874667-0.512-16.896-5.461333-24.234667-0.853333-1.194667-1.706667-2.389333-2.730667-3.584-1.706667-1.877333-2.389333-4.096-1.194666-6.485333 1.194667-2.218667 3.413333-3.242667 6.485333-3.925333zM793.770667 389.461333c0 3.584-1.365333 6.144-4.266667 7.509334-2.901333 1.365333-5.632 1.024-8.192-0.853334-1.194667-0.853333-2.048-2.218667-3.072-3.413333-26.794667-35.84-53.76-71.68-80.554667-107.349333-1.536-1.877333-3.072-3.754667-4.266666-5.973334-1.706667-2.901333-1.194667-6.485333 0.853333-8.874666 2.048-2.389333 5.632-3.584 8.533333-2.048 1.877333 0.853333 3.413333 2.389333 4.778667 3.925333 9.386667 12.288 18.602667 24.746667 27.818667 37.034667 18.432 24.576 36.864 49.322667 55.466666 73.898666 1.536 2.048 2.901333 3.925333 2.901334 6.144zM842.581333 840.874667c3.072 0 5.12 1.706667 6.826667 4.096 5.12 6.485333 10.069333 12.970667 15.189333 19.626666 13.482667 17.408 27.136 34.816 40.618667 52.394667 0.853333 1.194667 1.877333 2.389333 2.56 3.754667 1.706667 3.413333 0.853333 7.338667-2.048 9.728-2.901333 2.218667-6.997333 2.218667-9.898667-0.341334-1.024-0.853333-1.706667-1.877333-2.56-2.901333-18.602667-23.893333-37.205333-47.957333-55.637333-71.850667a13.738667 13.738667 0 0 1-2.730667-5.461333c-0.853333-4.778667 2.901333-8.704 7.850667-8.533333l-0.170667-0.512zM205.994667 792.746667c-10.752-0.170667-18.944-9.045333-18.602667-19.797334 0.341333-10.752 8.704-18.773333 19.797333-18.602666 10.581333 0.170667 18.773333 9.045333 18.602667 19.968-0.170667 10.410667-9.045333 18.602667-19.626667 18.432h-0.170666z m0.341333-10.24c5.12 0 9.045333-3.925333 9.045333-9.045334a9.045333 9.045333 0 0 0-8.874666-8.874666c-4.949333 0-9.045333 4.096-9.045334 9.045333 0 4.949333 3.754667 8.704 8.874667 8.704v0.170667zM848.042667 134.997333c0.170667-10.581333 8.874667-18.944 19.456-18.773333 10.922667 0.341333 19.114667 9.045333 18.944 19.968-0.170667 10.410667-9.045333 18.773333-19.626667 18.602667-10.581333 0-18.944-9.045333-18.773333-19.797334z m19.114666-8.362666c-4.949333 0-8.874667 4.266667-8.874666 9.216 0 4.949333 4.096 8.704 9.045333 8.704 4.949333 0 9.045333-4.266667 8.874667-9.216 0-4.949333-4.096-8.704-9.045334-8.704z" fill="#000000" p-id="6941"></path><path d="M450.048 141.141333c5.12 0 9.728 1.877333 13.994667 4.778667 6.826667 4.949333 12.629333 10.922667 17.578666 17.749333 8.192 11.093333 15.018667 23.04 21.674667 34.986667 2.389333 4.266667 4.608 8.533333 6.997333 12.8 3.754667 6.656 5.632 13.994667 5.802667 21.674667 0 2.048-0.512 4.096-1.365333 5.973333-1.877333 4.096-4.437333 7.68-7.850667 10.581333-7.68 6.485333-15.701333 12.458667-24.234667 17.578667-4.608 2.730667-9.386667 4.437333-14.677333 5.12-8.874667 1.024-16.725333-1.024-23.210667-7.168-4.778667-4.608-9.045333-9.557333-13.312-14.677333-9.557333-11.605333-18.602667-23.722667-26.282666-36.864-2.389333-3.925333-4.096-8.362667-5.802667-12.629334-2.048-4.778667-2.389333-9.728-2.048-14.677333 0.341333-4.096 1.706667-8.021333 4.266667-11.264 10.069333-13.312 23.04-23.210667 37.717333-30.890667 3.754667-2.048 7.338667-2.730667 10.752-2.730666v-0.341334z m14.165333 115.2c4.096 0.170667 7.68-1.024 10.922667-3.242666 6.997333-4.778667 13.824-9.898667 20.650667-14.848 0.853333-0.682667 1.706667-1.706667 2.389333-2.56 1.877333-1.877333 2.389333-4.266667 1.706667-6.826667-1.024-3.242667-2.048-6.656-3.584-9.728-1.706667-3.754667-3.754667-7.338667-5.802667-10.752-6.314667-10.581333-12.629333-21.162667-19.114667-31.573333-4.096-6.485333-9.216-11.946667-15.018666-16.725334-3.754667-3.072-7.338667-3.584-11.434667-1.024-10.581333 6.314667-20.650667 13.312-29.525333 22.016-3.242667 3.072-4.096 6.485333-2.730667 10.410667 1.194667 3.413333 2.56 6.826667 4.266667 9.898667 9.898667 17.92 22.357333 33.792 35.84 49.152 0.853333 1.024 1.877333 1.877333 2.730666 2.730666 2.56 2.218667 5.461333 3.413333 8.874667 3.242667l-0.170667-0.170667zM430.933333 513.706667c0.512-6.485333 2.56-10.581333 7.850667-13.141334 6.144-3.072 12.117333-6.997333 17.92-10.752 14.506667-9.216 28.842667-18.602667 43.349333-27.989333 0.853333-0.512 1.536-0.853333 2.389334-1.365333 7.68-4.266667 15.189333-3.925333 21.845333 1.706666 4.949333 4.266667 9.728 8.704 13.824 13.653334 8.362667 9.898667 16.213333 19.968 24.234667 30.208 1.536 1.877333 2.56 4.266667 3.242666 6.485333 1.194667 3.925333 0.170667 7.509333-2.901333 10.069333-3.925333 3.413333-7.850667 6.485333-11.946667 9.557334-9.898667 7.338667-19.968 14.506667-29.866666 21.674666-8.021333 5.802667-16.725333 10.581333-25.770667 14.336-3.925333 1.536-8.192 2.56-12.458667 3.413334-5.290667 1.024-10.24-0.341333-14.336-3.925334-3.925333-3.413333-7.68-6.826667-10.922666-10.752-5.973333-7.338667-11.605333-14.848-17.066667-22.528-2.901333-4.096-5.12-8.533333-7.168-13.141333-1.194667-2.730667-1.706667-5.802667-2.218667-7.68v0.170667z m117.418667 0.341333c-1.024-1.365333-1.536-2.389333-2.389333-3.242667-7.338667-9.216-14.677333-18.432-22.016-27.477333-2.389333-2.901333-4.778667-5.632-7.338667-8.362667-2.56-2.730667-2.730667-2.730667-5.802667-0.853333-11.264 7.168-22.698667 13.994667-33.792 21.504-9.045333 5.973333-18.432 11.776-28.330666 16.384-0.853333 0.341333-1.536 0.853333-2.56 1.536 1.024 2.048 1.877333 3.925333 3.072 5.632 5.461333 7.509333 10.752 15.189333 16.384 22.528 2.56 3.242667 5.632 6.144 8.192 9.386667 3.754667 4.778667 8.362667 5.461333 13.482666 2.901333l2.56-1.024c7.68-3.584 15.189333-7.509333 22.186667-12.458667l29.184-20.992c2.389333-1.706667 4.608-3.584 7.168-5.461333z" fill="#000000" p-id="6942"></path></svg>