<?xml version="1.0" standalone="no"?><!DOCTYPE svg PUBLIC "-//W3C//DTD SVG 1.1//EN" "http://www.w3.org/Graphics/SVG/1.1/DTD/svg11.dtd"><svg t="1751767609845" class="icon" viewBox="0 0 1024 1024" version="1.1" xmlns="http://www.w3.org/2000/svg" p-id="7088" xmlns:xlink="http://www.w3.org/1999/xlink" width="200" height="200"><path d="M706.218667 436.224c1.365333 1.536 2.218667 2.389333 2.901333 3.413333 4.437333 5.290667 8.192 10.752 9.386667 17.578667 0.682667 4.266667 0.682667 8.533333-0.682667 12.8-0.512 1.706667-0.512 2.730667 1.024 3.925333 22.186667 16.213333 40.789333 36.010667 59.392 55.808 13.653333 14.506667 27.306667 29.013333 39.253333 44.885334 6.997333 9.386667 13.994667 18.944 19.456 29.354666 5.973333 11.093333 10.410667 22.528 12.458667 34.986667 2.389333 13.824 0.512 26.965333-5.632 39.424-10.752 21.845333-27.648 37.376-50.005333 46.762667-11.605333 4.778667-23.04 4.608-34.304-1.365334-10.410667-5.461333-19.968-11.776-29.184-18.944-7.168-5.461333-13.994667-11.605333-20.992-17.408l-3.072-2.56c-0.170667 0.170667-0.512 0.341333-0.682667 0.512 0.682667 1.194667 1.365333 2.56 2.048 3.754667 4.778667 8.533333 9.898667 16.896 14.336 25.6 4.778667 9.045333 8.874667 18.432 11.776 28.330667 1.194667 3.584 1.877333 7.509333 2.389333 11.264 1.024 8.874667-1.536 16.896-6.144 24.234666-14.848 23.04-35.669333 38.058667-62.805333 43.349334-12.629333 2.56-24.917333 0-36.864-4.949334-13.653333-5.802667-25.6-14.165333-36.352-24.234666-12.458667-11.776-24.064-24.234667-34.474667-37.888-13.653333-17.92-27.136-36.010667-40.448-54.272-8.533333-11.776-15.872-24.405333-22.528-37.205334-0.682667-1.194667-1.365333-2.389333-1.877333-3.584-14.677333 0.341333-20.821333-1.365333-34.133333-17.237333-0.341333 1.877333-0.512 3.242667-0.682667 4.608-0.682667 10.069333-1.536 20.138667-3.584 30.037333-1.536 7.338667-3.925333 14.336-7.68 20.821334-6.314667 11.264-15.701333 18.432-28.16 21.674666-7.509333 1.877333-15.018667 3.072-22.698667 3.242667-11.776 0-23.04-2.56-33.792-7.168-8.192-3.413333-15.36-8.021333-22.186666-13.824-10.581333-8.874667-16.725333-20.650667-20.48-33.792-2.56-8.533333-3.584-17.237333-4.266667-26.112-1.024-12.970667-0.682667-25.770667 0.170667-38.741333 0.682667-10.581333 1.877333-21.333333 3.072-31.914667 1.365333-12.288 3.072-24.405333 4.437333-36.693333 2.56-20.821333 4.437333-41.813333 8.533333-62.464 0.853333-4.437333 0.853333-8.192-1.024-12.288-1.536-3.413333-2.048-7.168-3.072-11.093334-14.677333-1.877333-29.354667-5.290667-43.52-10.581333-1.024 1.536-1.877333 2.901333-2.901333 4.096-4.949333 6.314667-11.093333 11.264-18.090667 15.189333-7.509333 4.096-15.36 3.925333-23.381333 1.877334-6.826667-1.877333-12.970667-5.12-18.602667-9.216-16.213333-11.946667-30.890667-25.770667-43.349333-41.813334-5.12-6.656-9.045333-13.994667-10.581333-22.528a23.893333 23.893333 0 0 1 1.877333-15.018666c2.56-5.12 5.461333-9.898667 8.533333-14.677334 1.194667-1.706667 3.242667-2.730667 5.290667-4.266666-26.624-50.858667-31.573333-103.765333-11.946667-158.378667 12.8-35.669333 34.816-65.024 65.536-87.552 35.669333-25.941333 74.922667-38.570667 118.272-37.717333 43.178667 0.853333 81.578667 15.36 115.541334 41.813333 4.266667-1.706667 8.362667-3.413333 12.458666-4.949333 10.581333-4.266667 20.48-2.56 29.866667 3.584 6.144 4.096 11.434667 9.216 16.042667 15.018666 10.069333 12.458667 19.114667 25.770667 26.624 39.936 3.584 6.826667 6.485333 13.824 7.68 21.504 1.877333 11.264-0.341333 21.504-8.874667 29.696-3.925333 3.754667-7.850667 7.338667-12.458667 9.898667-2.048 1.024-2.730667 2.389333-2.218666 4.778667 2.048 13.312 3.072 26.624 1.877333 39.936v2.048c-0.341333 1.877333 0.512 2.901333 2.218667 3.754666 3.072 1.536 5.802667 3.413333 8.874666 4.949334 1.024 0.512 2.218667 0.853333 3.242667 0.853333 15.701333-0.341333 31.402667 0 47.104 1.194667 11.434667 0.853333 22.698667 1.024 34.133333 1.706666 16.042667 1.024 32.256 2.048 48.298667 3.242667 16.042667 1.194667 31.744 3.925333 47.445333 7.850667 10.24 2.56 20.138667 6.314667 29.354667 11.776 17.066667 10.069333 26.965333 25.258667 31.914667 43.861333 5.290667 19.456 3.584 38.4-4.266667 57.002667-6.314667 14.848-17.066667 23.893333-32.597333 27.818666-10.24 2.56-20.650667 2.730667-31.232 1.877334l-18.432-1.536c-0.512 0-0.853333 0-2.218667 0.170666l-0.341333 0.170667z m-180.394667-157.013333c2.730667-23.381333 1.024-46.08-5.461333-68.437334-11.093333-38.058667-32.597333-69.12-64.682667-92.672-63.658667-47.104-150.869333-45.056-212.992 4.608a175.0528 175.0528 0 0 0-50.858667 205.994667c15.701333 36.010667 40.96 63.829333 75.264 82.944 21.674667 12.117333 44.885333 19.285333 69.802667 21.333333v-2.901333c0-2.730667-0.682667-5.632-0.512-8.362667 0.341333-4.778667 1.706667-9.386667 3.584-13.824 5.632-13.141333 13.653333-24.576 23.04-34.986666 16.042667-17.578667 33.109333-33.962667 51.712-48.810667 13.994667-11.264 28.501333-21.674667 43.690667-31.232 11.434667-7.168 23.722667-12.8 36.864-16.213333 9.386667-2.389333 18.602667-2.730667 27.477333 1.706666 0.682667 0.341333 1.536 0.512 2.730667 0.853334h0.341333z m-0.341333 332.970666c9.386667 0.341333 19.285333-3.072 28.842666-7.850666 13.824-6.826667 26.624-15.018667 39.082667-24.064 10.581333-7.509333 20.309333-15.701333 29.525333-24.917334 7.509333-7.509333 15.018667-15.189333 21.845334-23.381333 6.314667-7.68 12.458667-15.36 16.725333-24.405333 3.584-7.850667 5.802667-15.872 5.461333-24.576-0.341333-7.338667-1.706667-14.506667-4.608-21.333334-2.901333-7.168-6.826667-13.824-11.093333-20.138666-13.482667-19.797333-27.648-38.741333-43.178667-57.002667-23.04-26.965333-47.616-52.224-72.704-77.141333-4.949333-4.949333-10.752-9.045333-16.384-13.482667-3.584-2.730667-8.192-3.242667-12.629333-3.072-1.877333 0-3.754667 0.512-5.461333 0.853333-12.8 3.072-24.576 8.704-35.498667 15.701334-16.384 10.752-32.597333 21.845333-47.104 35.157333-3.072 2.730667-6.826667 4.949333-9.728 7.850667-10.581333 10.24-20.992 20.48-31.232 30.890666-6.656 6.656-12.117333 14.336-17.066667 22.528-2.901333 4.778667-5.461333 9.728-6.997333 15.189334-1.365333 4.778667-1.536 9.728 1.024 14.165333 3.242667 6.144 6.314667 12.458667 10.24 18.090667 9.386667 13.824 19.114667 27.477333 29.184 40.96 24.405333 33.109333 50.176 65.194667 80.042667 93.866666 6.314667 6.144 12.8 12.117333 20.48 16.725334 9.216 5.632 18.944 9.386667 31.573333 9.045333l-0.341333 0.341333z m281.770666-25.258666l-4.437333-5.973334c-11.264-14.506667-24.064-27.818667-36.522667-41.301333-16.725333-18.090667-34.474667-35.328-52.736-51.882667-1.024-1.024-2.218667-1.877333-3.584-2.901333-1.194667 1.536-2.218667 2.901333-3.242666 4.096-3.072 3.584-5.802667 7.338667-9.045334 10.581333-6.144 5.973333-12.288 12.117333-19.114666 17.237334-5.12 3.925333-8.874667 8.704-12.629334 13.653333-9.728 13.141333-20.821333 25.258667-32.597333 36.693333-9.557333 9.216-19.626667 17.749333-30.378667 25.429334-13.653333 9.898667-27.818667 18.773333-42.837333 26.112-5.12 2.56-10.24 4.949333-13.994667 9.216-0.682667 0.853333-1.706667 1.365333-2.389333 1.877333-4.266667 3.242667-8.704 6.485333-12.970667 10.069333-5.461333 4.437333-11.434667 8.362667-17.92 11.434667-1.365333 0.682667-2.56 1.365333-3.925333 2.048 0 0.682667 0 1.024 0.170667 1.194667 0.682667 1.194667 1.194667 2.218667 1.877333 3.242666 16.042667 25.941333 33.621333 50.688 52.394667 74.752 8.362667 10.752 17.237333 20.992 25.941333 31.573334 0.853333 1.024 1.706667 1.706667 2.730667 2.730666 5.973333-4.266667 11.776-8.192 17.408-12.288 13.653333-10.069333 26.965333-20.138667 40.618666-30.037333 12.970667-9.557333 25.258667-19.626667 37.034667-30.72 1.194667-1.024 2.218667-2.389333 3.242667-3.584-6.826667-10.922667-13.482667-21.674667-21.674667-31.573333-1.194667 0.853333-2.218667 1.365333-3.242667 2.048-3.754667 2.56-7.509333 5.12-11.264 7.509333-1.536 1.024-3.242667 1.877333-4.949333 2.389333-3.754667 1.194667-7.338667-0.341333-8.704-3.584-1.536-3.242667-0.341333-6.485333 2.730667-8.874666 1.536-1.194667 3.242667-2.218667 4.778666-3.413334 13.824-10.24 26.794667-21.162667 39.253334-32.938666 1.365333-1.365333 2.730667-2.901333 4.096-4.266667 2.218667-2.048 5.290667-2.56 7.68-1.194667 2.730667 1.365333 4.096 3.925333 3.754666 7.168-0.341333 2.56-1.706667 4.608-3.413333 6.314667-3.242667 3.413333-6.656 6.826667-9.898667 10.410667-0.853333 0.853333-1.706667 1.877333-2.730666 3.072 1.024 1.194667 1.877333 2.389333 2.901333 3.242666 7.168 6.997333 14.506667 14.165333 21.845333 21.162667 0.341333 0.341333 0.853333 0.682667 1.365334 1.194667 1.024 1.194667 2.218667 1.024 3.413333 0 1.194667-0.853333 2.56-1.706667 3.754667-2.56 9.728-8.021333 19.797333-15.872 29.184-24.405334 14.848-13.482667 29.354667-27.477333 43.861333-41.301333 4.778667-4.437333 9.216-9.216 14.165333-13.994667v0.341334z m-95.914666-280.234667c-0.341333 2.901333-0.682667 5.12-0.682667 7.168-0.170667 10.922667-0.512 21.845333-0.682667 32.768-0.341333 18.773333 1.024 37.376 3.584 55.978667 0.682667 5.12 1.706667 10.24 2.389334 15.530666 0.341333 2.048 1.194667 2.730667 3.242666 2.901334 3.242667 0 6.485333 0.341333 9.728 0.682666 7.850667 0.853333 15.530667 0.512 23.210667-1.024 11.776-2.218667 19.797333-8.704 24.234667-20.138666 5.290667-13.141333 6.997333-26.624 4.266666-40.618667-3.925333-19.797333-14.165333-34.816-33.109333-43.178667-7.338667-3.242667-15.018667-5.632-22.869333-7.338666-4.266667-1.024-8.533333-1.706667-13.482667-2.730667h0.170667zM332.970667 623.957333c0 1.877333-0.341333 3.072-0.341334 4.437334 0 3.754667 0.170667 7.68 0.341334 11.434666 0.512 8.533333 1.536 16.896 4.266666 25.088 2.730667 8.362667 6.314667 16.384 12.8 22.528 11.776 11.093333 25.770667 17.066667 41.813334 18.944 8.021333 0.853333 15.701333-0.512 23.552-2.048 9.728-2.048 16.554667-7.509333 20.821333-16.384 0.682667-1.536 1.365333-2.901333 1.877333-4.437333 3.754667-9.728 4.778667-20.138667 5.632-30.378667 0.341333-3.754667 0.341333-4.096-3.413333-5.12-11.605333-3.754667-23.210667-7.509333-34.986667-10.922666-20.821333-5.802667-42.154667-8.362667-63.317333-11.946667-2.901333-0.512-5.802667-0.682667-9.216-1.024l0.170667-0.170667z m14.506666-144.554666c-1.194667 10.581333-2.218667 20.821333-3.413333 31.061333-1.194667 10.069333-2.56 20.309333-3.584 30.378667-1.194667 10.24-2.901333 20.309333-3.584 30.890666 18.944 0 37.205333 2.56 55.296 6.485334s35.328 10.24 53.248 16.896v-4.096c0-2.730667-0.170667-5.632 0-8.362667 0-1.877333-0.512-3.072-1.706667-4.266667-3.242667-3.413333-6.485333-6.656-9.557333-10.24a976.298667 976.298667 0 0 1-62.805333-79.701333c-1.365333-2.048-2.730667-3.584-5.461334-3.754667-5.290667-0.341333-10.24-2.048-15.018666-4.266666-0.853333-0.341333-1.877333-0.682667-3.242667-1.194667l-0.170667 0.170667z m218.794667-183.296c0.341333 1.706667 0.512 2.730667 0.853333 3.584 1.194667 4.437333 1.877333 8.874667 1.365334 13.482666-0.341333 3.413333 0.853333 5.802667 3.242666 8.192 26.794667 27.306667 52.394667 55.637333 75.264 86.357334 1.024 1.365333 2.218667 2.218667 3.925334 2.389333 2.218667 0.341333 4.608 0.853333 6.826666 1.365333 1.536 0.341333 3.072 0.512 4.949334 0.853334-1.877333-12.629333-3.925333-24.746667-5.632-36.864-1.706667-12.288-1.536-24.746667-1.536-37.205334 0-12.288 1.536-24.405333 3.413333-36.864-31.061333-1.706667-61.781333-3.584-92.842667-5.290666h0.170667z m65.536 502.954666q0.341333 0.512 0.512 0.682667c10.410667 5.461333 21.333333 8.192 32.938667 5.973333 17.237333-3.242667 31.573333-11.946667 43.349333-24.917333 4.096-4.608 8.021333-9.386667 10.410667-15.189333 1.877333-4.266667 2.730667-8.704 1.194666-13.312-2.048-6.144-4.266667-12.288-6.485333-18.432-0.170667-0.512-0.682667-0.853333-1.024-1.365334-26.965333 22.186667-53.930667 44.202667-81.066667 66.389334l0.170667 0.170666zM831.658667 631.466667a15355.392 15355.392 0 0 0-79.872 68.608c5.290667 3.754667 10.581333 6.826667 16.042666 9.557333 6.656 3.413333 13.141333 3.242667 19.797334 0.682667l3.584-1.536c14.677333-6.997333 26.282667-17.237333 34.986666-31.061334 8.362667-13.141333 10.581333-27.136 6.826667-42.154666-0.341333-1.365333-0.853333-2.730667-1.365333-4.266667V631.466667z m-498.346667-22.016c19.626667 0.512 38.229333 3.754667 56.832 7.338666 18.602667 3.584 36.522667 9.216 54.954667 15.189334 0-1.706667 0.341333-2.730667 0.341333-3.925334v-11.776c0.170667-3.072-1.024-4.437333-3.754667-5.632-15.530667-6.314667-31.232-11.946667-47.445333-15.872-15.018667-3.754667-30.378667-5.632-45.568-7.68-3.413333-0.512-6.997333-0.682667-10.410667-0.853333-2.901333 0-3.072 0.170667-3.413333 3.072l-0.512 5.461333c-0.341333 4.608-0.682667 9.216-1.024 14.506667v0.170667z m366.762667-190.805334c-6.314667-38.229333-7.68-75.946667-3.072-114.176-7.68-0.853333-15.189333-2.048-22.869334-2.048-0.341333 2.048-0.853333 3.584-0.853333 5.12-0.512 10.581333-1.194667 21.162667-1.365333 31.744 0 9.728 0 19.456 0.853333 29.184 0.853333 10.069333 2.730667 20.309333 4.266667 30.378667 0.682667 4.778667 2.048 9.557333 2.901333 14.336 0.341333 1.365333 0.853333 2.389333 2.389333 2.56 5.632 0.853333 11.264 1.877333 17.749334 2.901333z m-428.885334 13.312c-8.021333-4.608-15.701333-8.704-22.869333-13.482666-7.338667-4.949333-14.506667-10.24-21.162667-15.872-6.485333-5.632-12.629333-11.946667-18.432-18.432-5.802667-6.485333-10.922667-13.824-16.554666-20.992-2.901333 4.608-5.632 9.216-6.826667 14.506666a11.264 11.264 0 0 0 0 4.778667c0.853333 6.144 4.096 11.264 7.68 16.213333 5.973333 8.192 13.312 15.189333 20.650667 22.186667 6.314667 6.144 12.970667 12.117333 20.309333 16.896 4.437333 2.901333 9.045333 5.290667 14.165333 6.485333 4.096 0.853333 8.021333 0.512 11.605334-2.048 1.877333-1.365333 3.925333-2.56 5.632-4.096 2.048-1.877333 3.754667-3.925333 5.973333-5.973333l-0.170667-0.170667z m545.450667 168.106667c-1.194667 1.194667-2.218667 1.877333-3.072 2.730667-3.242667 3.242667-6.485333 6.656-9.898667 9.898666-12.288 11.605333-24.746667 23.210667-37.034666 34.986667-12.117333 11.434667-24.405333 22.698667-38.570667 31.402667a15.018667 15.018667 0 0 1-2.389333 1.194666c4.949333 3.925333 8.874667 7.168 13.141333 10.581334 2.218667-1.706667 4.096-3.242667 5.802667-4.778667 4.949333-4.608 9.728-9.216 14.848-13.653333 16.042667-13.994667 32.256-27.648 48.469333-41.642667 5.12-4.437333 10.069333-9.216 15.018667-13.994667 0.853333-0.853333 2.218667-1.706667 1.365333-3.242666-2.218667-4.608-4.778667-9.045333-8.021333-13.482667h0.341333z m-118.101333 103.936c-1.024 1.024-1.706667 1.536-2.389334 2.218667-4.266667 4.096-8.021333 8.704-12.629333 12.458666-9.216 7.68-18.602667 15.018667-28.330667 22.186667-16.384 12.288-32.938667 24.234667-49.493333 36.352-0.682667 0.512-1.194667 1.024-1.877333 1.706667 0.682667 0.853333 1.194667 1.536 1.877333 2.218666 2.730667 2.389333 5.461333 4.778667 8.192 6.997334 2.389333 1.877333 2.56 2.048 5.12 0 5.12-3.754667 10.069333-7.338667 15.018667-11.434667 16.554667-13.482667 33.109333-27.136 49.664-40.618667 6.314667-5.12 12.970667-9.898667 19.285333-14.848 1.194667-0.853333 2.218667-2.048 3.242667-3.072-2.389333-4.949333-4.778667-9.557333-7.850667-13.994666l0.170667-0.170667zM484.181333 120.832c4.949333 5.461333 9.728 10.410667 14.165334 15.701333 4.437333 5.290667 8.704 10.922667 12.458666 16.725334 3.754667 5.632 7.338667 11.605333 10.410667 17.749333 3.242667 6.144 5.973333 12.629333 8.533333 18.944 2.56 6.314667 4.608 12.970667 6.997334 20.138667 2.56-2.218667 4.437333-4.096 6.656-5.802667 5.12-4.437333 6.314667-10.069333 5.12-16.384-1.365333-7.509333-4.608-14.336-8.362667-20.992-5.973333-10.410667-12.629333-20.48-20.138667-30.037333-3.072-3.925333-6.485333-7.68-10.069333-10.922667-2.901333-2.56-6.314667-4.778667-9.898667-6.485333-5.290667-2.56-10.581333-0.853333-16.042666 1.365333h0.170666z m198.656 370.176c0.853333-0.341333 1.194667-0.341333 1.536-0.512 0.682667-0.512 1.365333-1.194667 2.048-1.877333 5.290667-5.290667 9.898667-11.434667 13.824-17.92 0.682667-1.194667 1.194667-2.56 1.877334-3.754667 1.706667-3.584 1.365333-6.997333-0.341334-10.410667-1.877333-3.584-4.437333-6.826667-7.68-9.386666a14.421333 14.421333 0 0 0-16.384-1.024c-3.242667 1.877333-3.584 2.901333-2.048 6.485333 4.437333 9.557333 6.656 19.456 6.997334 30.037333v8.362667h0.170666z m-163.84 138.24q0-0.512-0.170666-0.853333c-1.706667-0.341333-3.584-0.512-5.290667-0.853334a80.042667 80.042667 0 0 1-31.232-12.970666c-2.730667-1.877333-3.754667-1.706667-5.973333 0.512-4.266667 4.437333-5.290667 11.093333-2.389334 16.384 1.194667 2.218667 2.901333 4.266667 4.437334 6.144 4.778667 5.802667 10.752 7.338667 17.749333 4.437333 6.826667-2.901333 13.482667-6.144 19.797333-10.24 1.194667-0.682667 2.218667-1.706667 3.242667-2.56h-0.170667zM345.941333 450.730667l-0.853333 0.512c1.194667 3.925333 2.901333 7.68 6.144 10.581333 0.170667 0 0.512-0.170667 0.682667-0.341333-1.877333-3.584-3.925333-7.168-5.802667-10.581334l-0.170667-0.170666z m194.901334-159.914667c1.706667 2.56 4.096 4.266667 6.997333 6.144a9.386667 9.386667 0 0 0-6.997333-6.144z" fill="#000000" p-id="7089"></path><path d="M85.333333 283.136c0-1.194667 0.170667-2.389333 0.512-3.584 0.682667-2.901333 3.072-4.778667 5.973334-5.12 2.730667-0.170667 5.632 1.365333 6.656 4.096 0.341333 0.853333 0.682667 1.706667 0.682666 2.730667 0.170667 5.973333 2.389333 11.264 4.266667 16.725333 10.069333 29.525333 24.405333 57.002667 41.642667 82.944 12.288 18.261333 24.576 36.522667 39.082666 53.077333 7.509333 8.362667 15.36 16.384 23.210667 24.576 3.925333 4.096 7.850667 8.021333 11.605333 11.946667 1.706667 1.877333 3.242667 3.925333 3.242667 6.656 0 5.461333-5.12 9.045333-10.069333 6.997333a10.820267 10.820267 0 0 1-3.925334-2.730666c-18.773333-18.773333-37.546667-37.546667-53.077333-59.050667-17.578667-24.234667-34.474667-48.810667-47.957333-75.605333-8.533333-17.066667-16.042667-34.645333-20.48-53.248l-1.024-4.778667-0.512-5.632H85.333333zM306.005333 611.498667q-1.024 2.218667-2.048 3.413333c-3.242667 3.925333-5.802667 8.192-6.997333 13.141333-1.877333 8.021333-1.024 15.872 2.389333 23.381334 1.365333 2.901333 3.072 5.461333 4.608 8.192 2.048 3.754667 0.853333 7.850667-3.072 9.557333-1.877333 0.853333-3.584 0.512-5.290666-0.853333-1.024-0.853333-1.877333-1.877333-2.730667-2.730667-11.264-11.605333-27.477333-13.824-41.472-5.461333-0.682667 0.341333-1.194667 0.682667-1.877333 1.024-2.730667 1.365333-5.12 1.024-7.168-1.365334s-2.218667-4.608-0.341334-7.338666c0.341333-0.512 0.853333-1.024 1.365334-1.706667 10.069333-12.458667 10.24-28.672 0.682666-41.472-0.682667-0.853333-1.536-1.706667-2.218666-2.730667-1.536-2.389333-1.536-4.437333 0-6.314666 2.048-2.56 5.290667-3.413333 7.68-2.218667 1.024 0.682667 2.048 1.536 3.072 2.389333 5.290667 4.437333 10.922667 7.850667 17.578666 9.386667 8.362667 2.048 16.384 1.024 23.893334-3.413333 1.024-0.512 2.048-1.194667 3.072-1.706667 3.925333-1.706667 8.533333 1.536 8.533333 6.656l0.341333 0.170667zM846.506667 285.866667c-6.656 0.170667-12.117333 1.536-17.237334 4.437333-0.853333 0.512-1.706667 1.194667-2.730666 1.536-2.901333 1.536-5.290667 1.024-7.338667-1.536-2.048-2.389333-2.048-4.778667 0-7.338667 3.242667-3.925333 5.973333-8.021333 7.338667-12.970666 3.242667-10.752 1.194667-20.48-5.12-29.354667-0.853333-1.194667-1.706667-2.218667-2.56-3.242667-1.706667-2.389333-1.536-4.778667 0-6.656 2.218667-2.56 5.290667-3.242667 7.850666-1.877333 1.024 0.682667 2.048 1.536 3.072 2.389333 5.461333 4.608 11.434667 8.021333 18.432 9.557334 7.68 1.536 15.018667 0.682667 22.016-3.072 1.024-0.512 2.048-1.194667 3.072-1.706667 3.754667-2.048 6.826667-1.194667 8.874667 2.56 1.024 1.706667 1.024 3.584 0 5.290667-0.341333 0.682667-0.853333 1.365333-1.536 1.877333-9.216 11.093333-10.069333 23.381333-4.608 36.181333 1.194667 2.901333 3.072 5.632 4.778667 8.533334 1.194667 2.048 1.536 4.096 0.170666 6.314666-2.56 4.437333-6.485333 4.949333-9.898666 1.024-4.949333-5.461333-10.581333-9.386667-17.749334-10.922666-2.56-0.512-4.949333-0.853333-6.656-1.024h-0.170666zM491.349333 788.992c2.56 0 4.608 1.536 6.314667 3.754667 4.096 5.461333 8.362667 10.922667 12.458667 16.384 19.285333 25.258667 38.4 50.517333 57.685333 75.776 0.853333 1.194667 1.877333 2.389333 2.56 3.754666 1.706667 3.413333 0.853333 7.509333-2.048 9.728-2.901333 2.218667-6.997333 2.048-9.898667-0.682666-1.024-1.024-1.877333-2.048-2.730666-3.242667-23.04-30.208-46.08-60.416-69.12-90.794667-0.853333-1.194667-1.877333-2.389333-2.56-3.754666-2.56-5.290667 1.024-11.093333 7.338666-11.093334v0.170667zM822.272 820.736c2.730667 0 4.949333 1.365333 6.656 3.413333 2.730667 3.242667 5.290667 6.485333 8.021333 9.728 21.162667 25.6 42.325333 51.029333 63.317334 76.629334 1.024 1.194667 2.048 2.56 2.730666 3.925333 1.706667 3.242667 0.682667 7.168-2.218666 9.386667-2.730667 2.048-6.485333 2.048-9.386667 0a13.653333 13.653333 0 0 1-2.218667-2.218667l-71.850666-86.698667c-1.536-1.877333-2.730667-4.096-2.56-6.656 0.170667-4.096 3.413333-7.168 7.509333-7.168v-0.341333zM833.024 433.834667c2.218667 0 4.096 0.682667 5.632 2.389333 0.853333 1.024 1.706667 1.877333 2.389333 2.901333 20.992 28.16 41.984 56.149333 63.146667 84.309334 0.853333 1.194667 1.877333 2.389333 2.389333 3.754666 1.706667 3.584 0.682667 7.509333-2.389333 9.557334-3.072 2.048-6.826667 1.877333-9.557333-0.682667-0.853333-0.853333-1.706667-1.877333-2.56-2.901333-21.333333-28.501333-42.666667-56.832-63.829334-85.333334-1.194667-1.706667-2.389333-3.584-2.56-5.632-0.853333-4.608 2.901333-8.362667 7.509334-8.362666h-0.170667zM255.146667 847.701333c-10.581333 0-19.114667-8.362667-19.285334-18.944 0-10.752 8.362667-19.285333 19.114667-19.285333 10.581333 0 18.944 8.533333 19.114667 19.114667 0 10.581333-8.362667 19.114667-18.944 19.114666z m-0.170667-10.069333c5.290667 0 9.045333-3.754667 9.045333-8.874667 0-5.12-4.096-9.045333-9.045333-9.045333-4.778667 0-8.874667 4.096-9.045333 8.874667 0 4.949333 3.925333 9.045333 9.045333 9.045333z" fill="#000000" p-id="7090"></path></svg>