<?xml version="1.0" standalone="no"?><!DOCTYPE svg PUBLIC "-//W3C//DTD SVG 1.1//EN" "http://www.w3.org/Graphics/SVG/1.1/DTD/svg11.dtd"><svg t="1751767624997" class="icon" viewBox="0 0 1024 1024" version="1.1" xmlns="http://www.w3.org/2000/svg" p-id="7680" xmlns:xlink="http://www.w3.org/1999/xlink" width="200" height="200"><path d="M463.36 699.904q-1.365333-0.512-2.048-0.682667c-9.557333-2.048-17.749333-6.485333-25.429333-12.458666-16.213333-12.629333-30.72-26.965333-44.032-42.666667-18.090667-21.333333-33.962667-44.202667-50.517334-66.730667a817.664 817.664 0 0 1-40.448-61.781333c-3.242667-5.461333-6.144-10.922667-9.045333-16.554667a34.986667 34.986667 0 0 1-4.096-16.042666c0-3.072 0-3.072-3.072-4.096a186.368 186.368 0 0 1-60.757333-34.304c-34.304-29.013333-55.808-65.706667-64.682667-109.909334-3.242667-15.701333-4.266667-31.573333-3.242667-47.616 2.730667-41.472 17.066667-78.506667 43.690667-110.592 27.477333-33.109333 62.464-54.442667 104.448-64.170666 17.92-4.266667 36.010667-5.632 54.442667-4.437334 38.570667 2.56 73.216 15.530667 103.936 38.912 1.194667 0.853333 2.56 1.877333 3.925333 2.218667 6.314667 1.536 11.605333 4.949333 16.042667 9.386667 10.24 10.069333 20.138667 20.48 28.501333 32.085333 7.168 10.069333 13.653333 20.48 18.261333 32.085333 2.218667 5.461333 4.266667 10.752 4.608 16.725334 0.170667 4.266667 0 8.362667-1.194666 12.458666-0.512 1.536-0.341333 3.242667 0 4.778667 3.413333 14.848 4.949333 30.037333 4.608 45.397333-0.170667 12.970667-1.706667 25.770667-4.608 38.4-0.512 2.389333-0.170667 4.096 1.536 6.144 5.632 6.485333 10.069333 13.653333 11.605333 22.357334 0 0.853333 0.512 1.706667 0.853333 2.730666 2.730667 0.170667 5.461333 0.512 8.021334 0.512 19.456 0.853333 38.4 5.12 57.173333 9.898667 19.968 5.12 39.936 9.728 59.904 14.848 10.410667 2.730667 20.821333 5.973333 30.549333 10.581333 8.362667 3.925333 15.701333 9.386667 22.528 15.701334 7.850667 7.509333 12.117333 16.896 14.677334 27.306666 3.242667 13.653333 4.096 27.477333 1.024 41.472-4.096 19.114667-15.189333 33.109333-32.597334 42.154667-1.194667 0.512-2.218667 1.194667-3.584 1.706667 0.341333 0.682667 0.682667 1.365333 1.024 1.877333 20.650667 23.381333 36.864 49.493333 51.882667 76.629333 9.386667 17.066667 18.773333 34.133333 27.818667 51.541334 6.656 12.970667 12.288 26.282667 15.530666 40.618666 3.242667 14.165333 4.096 28.330667-0.682666 42.325334-4.778667 13.824-12.288 26.112-22.528 36.522666-8.874667 8.874667-18.602667 16.384-30.549334 20.992-10.24 3.925333-20.650667 5.12-31.232 1.365334-0.512-0.170667-1.024-0.170667-1.877333-0.341334-0.341333 1.194667-0.682667 2.048-0.853333 3.072-3.584 15.018667-11.264 27.136-23.722667 36.181334-7.850667 5.632-16.213333 10.410667-25.429333 13.482666-10.752 3.584-20.992 2.56-31.061334-2.730666-9.045333-4.778667-16.725333-10.922667-23.552-18.261334-19.968-22.016-41.642667-42.154667-62.464-63.317333-9.898667-10.069333-19.797333-20.309333-29.696-30.378667-9.728-9.898667-19.797333-19.626667-29.525333-29.696a5.666133 5.666133 0 0 0-4.266667-1.706666c-5.461333 0.170667-10.24-1.877333-14.848-4.608-2.730667-1.536-3.925333-3.925333-4.778666-9.216l-0.170667-0.170667z m55.978667-427.861333c-1.536 1.024-2.389333 1.877333-3.242667 2.389333-4.778667 3.242667-9.386667 6.826667-14.506667 9.728-8.704 4.949333-17.749333 4.778667-26.453333-0.341333-5.802667-3.413333-11.093333-7.338667-15.36-12.458667a224.256 224.256 0 0 1-32.768-48.810667c-2.901333-5.973333-6.144-12.117333-7.509333-18.773333-0.682667-3.072-1.365333-6.485333-0.853334-9.557333 1.024-9.045333 4.437333-17.066667 11.776-23.04 5.12-4.096 10.069333-8.192 15.189334-12.288 0.853333-0.682667 1.706667-1.536 2.56-2.218667-42.325333-32.768-116.053333-48.298667-183.296-12.8-69.973333 36.864-107.008 116.906667-88.234667 194.901333 9.216 38.058667 29.013333 69.632 59.221333 94.549334 16.725333 13.824 47.445333 30.037333 57.173334 30.378666 0.512-0.853333 1.194667-1.877333 1.706666-2.901333 5.973333-10.410667 13.141333-19.968 21.845334-28.330667l17.749333-16.725333c7.68-7.168 16.554667-12.629333 25.258667-18.602667 17.749333-12.117333 36.864-22.186667 56.832-30.037333 5.461333-2.048 11.093333-3.584 16.896-3.584 7.68 0 14.848 2.218667 21.674666 5.632 12.629333 6.314667 24.405333 13.994667 34.474667 24.064 0.682667 0.682667 1.536 1.194667 2.218667 1.877333 24.234667-37.717333 33.450667-78.336 27.306666-123.221333l0.341334 0.170667z m-103.765334 113.493333c1.194667 1.024 2.218667 1.877333 3.072 2.56 7.168 5.802667 14.506667 11.434667 21.333334 17.408 10.24 8.874667 18.773333 19.456 26.794666 30.208 14.677333 19.626667 29.184 39.424 43.690667 59.221333 0.682667 0.853333 1.365333 1.877333 1.706667 2.901334 1.365333 3.242667 0.341333 6.997333-2.389334 9.045333-2.730667 2.048-6.656 2.218667-9.386666 0.170667a16.657067 16.657067 0 0 1-2.901334-3.072c-6.656-8.874667-13.141333-17.749333-19.797333-26.624-11.264-15.018667-22.528-30.037333-33.962667-45.226667-11.434667-15.189333-26.282667-26.794667-40.618666-39.082667-1.536-1.194667-2.730667-1.194667-4.437334-0.341333-16.213333 8.021333-31.402667 17.578667-46.08 28.16-12.458667 9.045333-23.381333 19.968-33.621333 31.402667-5.461333 6.144-9.728 13.312-13.312 20.821333-3.072 6.656-3.072 12.970667 0.512 19.285333 3.072 5.290667 5.802667 10.922667 9.045333 16.042667 12.117333 20.309333 25.088 40.277333 38.912 59.392 16.554667 22.698667 32.597333 45.568 50.688 66.901333 12.458667 14.677333 26.112 27.989333 41.472 39.594667 3.072 2.389333 6.485333 4.437333 10.069334 6.144 9.045333 4.266667 18.261333 4.437333 27.306666-0.170667 2.901333-1.536 5.802667-2.901333 8.533334-4.778666 5.973333-3.925333 12.117333-8.021333 17.92-12.117334 15.701333-11.434667 31.232-23.210667 45.226666-36.522666 1.194667-1.194667 2.56-2.218667 3.242667-3.584 2.901333-5.802667 4.096-11.776 1.194667-18.090667-1.536-3.072-2.901333-6.314667-4.437334-9.386667-7.338667-14.336-15.701333-28.16-24.405333-41.813333-4.949333-7.850667-9.728-15.872-14.336-23.893333-1.194667-2.048-2.048-4.266667-2.56-6.485334-0.853333-3.754667 1.024-6.997333 4.266667-8.192 3.413333-1.194667 6.826667 0.170667 8.874666 3.754667 1.877333 3.242667 3.925333 6.485333 6.144 9.728 5.461333 8.192 11.093333 16.384 16.384 24.746667 9.898667 15.872 19.456 31.744 26.453334 48.981333 0 0.341333 0.512 0.341333 1.024 0.682667 4.608-6.144 9.045333-12.117333 10.922666-19.626667v-0.682667c1.194667-5.632 0-11.093333-1.877333-16.384-3.925333-11.605333-9.557333-22.357333-15.36-33.109333-9.216-17.066667-19.797333-33.450667-30.378667-49.664-16.213333-24.746667-34.133333-48.469333-52.565333-71.68-0.682667-0.853333-1.365333-1.706667-2.048-2.389333-10.410667-10.24-22.357333-18.261333-34.986667-25.088-2.389333-1.194667-4.778667-2.389333-7.338666-3.413334-9.898667-4.096-19.114667-1.194667-28.330667 3.754667l0.341333 0.512z m254.464 353.792c2.389333-1.365333 4.778667-2.389333 6.826667-3.754667 3.925333-2.389333 7.850667-4.949333 11.946667-7.338666 15.530667-9.216 29.866667-20.138667 43.349333-32.085334 11.605333-10.069333 20.821333-22.186667 28.842667-35.157333 1.536-2.389333 1.536-4.437333 0-6.997333-5.461333-9.386667-10.581333-18.944-15.701334-28.330667-12.117333-22.016-25.088-43.52-40.106666-63.658667-5.461333-7.338667-10.752-14.848-16.042667-22.357333h-4.096q-0.512 0.512-0.512 0.682667c-0.170667 0.512-0.341333 1.024-0.512 1.706666-0.853333 5.12-2.901333 9.728-5.461333 14.165334-3.754667 6.314667-8.533333 11.946667-13.994667 16.896-9.045333 8.192-18.261333 16.213333-27.306667 24.234666-6.997333 6.314667-13.994667 12.629333-20.821333 19.114667a742.826667 742.826667 0 0 1-112.128 87.722667c-1.024 0.682667-2.048 1.365333-3.072 2.218666 1.024 1.024 1.706667 1.877333 2.389333 2.56l75.434667 75.946667c2.56 2.56 5.290667 5.290667 7.850667 8.021333 1.024 1.024 2.048 1.194667 3.413333 0.853334 7.850667-2.389333 15.189333-5.802667 22.016-10.069334 15.189333-9.557333 28.672-21.333333 42.837333-32.256 0.682667-0.512 1.536-1.024 2.56-1.706666-1.706667-2.218667-3.072-3.754667-4.266666-5.461334-14.677333-18.944-29.525333-37.717333-44.202667-56.661333a12.970667 12.970667 0 0 1-2.048-3.242667c-2.389333-5.632 1.877333-11.434667 8.021333-10.752 2.901333 0.341333 4.778667 2.048 6.485334 4.266667l14.848 18.944 30.890666 39.594667c0.853333 1.024 1.706667 1.877333 2.56 3.072v-0.170667z m-66.901333-174.762667c5.632-3.584 28.501333-29.354667 30.890667-34.645333-1.024-0.341333-1.877333-0.682667-2.901334-0.853333-12.288-2.901333-24.405333-5.632-36.693333-8.704-2.730667-0.682667-5.632-1.706667-8.192-2.901334-4.096-1.877333-5.802667-5.802667-4.608-9.728 1.194667-3.754667 4.778667-5.632 9.216-5.12 0.853333 0 1.706667 0.512 2.730667 0.682667l15.872 4.096c0.853333 0.170667 1.706667 0 2.901333 0.170667-6.826667-37.205333-2.56-72.362667 18.944-104.618667-4.266667-1.024-7.850667-2.048-11.605333-2.901333-15.018667-3.584-30.037333-7.509333-45.226667-10.410667-5.461333-1.024-8.533333 0.682667-11.434667 4.778667-0.341333 0.512-0.682667 1.024-1.024 1.365333-3.925333 5.802667-6.485333 12.288-8.192 19.114667-4.096 16.896-4.096 33.792-0.341333 50.858666 1.706667 8.021333 4.266667 15.701333 8.874667 22.528 5.12 8.021333 10.24 16.042667 15.018666 24.234667 9.557333 16.042667 18.090667 32.426667 24.576 50.005333 0.170667 0.682667 0.682667 1.194667 1.024 1.706667l0.170667 0.341333z m56.149333-75.605333c-0.170667 12.458667 1.194667 21.845333 2.901334 27.136 1.024 2.901333 2.389333 4.949333 5.802666 5.12 1.536 0 3.242667 0.682667 4.778667 1.024 5.632 0.853333 11.264 2.218667 16.896 1.194667 16.554667-2.730667 31.232-16.896 34.816-33.621334 2.56-11.605333 2.048-23.210667-0.512-34.816-2.218667-10.581333-7.68-18.944-16.213333-25.6-8.704-6.656-18.602667-10.410667-28.672-13.824-1.365333-0.512-2.389333-0.170667-3.072 1.194667-0.512 1.194667-1.365333 2.389333-1.877334 3.754667-4.096 8.704-6.826667 17.749333-8.704 27.136-3.072 15.018667-5.632 30.208-5.973333 41.472l-0.170667-0.170667zM465.066667 163.498667c-2.901333 2.389333-5.290667 4.266667-7.68 6.314666-5.632 4.608-11.605333 9.045333-17.066667 13.824-5.290667 4.778667-6.997333 10.922667-4.778667 17.749334 0.682667 2.048 1.365333 3.925333 2.218667 5.802666 8.362667 19.285333 19.797333 36.522667 33.28 52.394667 3.413333 4.096 7.509333 7.168 12.117333 9.898667 3.925333 2.389333 7.68 2.389333 11.434667 0 3.413333-2.048 6.826667-4.266667 10.24-6.656 5.461333-3.925333 9.045333-9.216 11.946667-15.189334 0.853333-1.877333 1.536-4.266667 1.365333-6.314666-0.341333-3.584-1.194667-7.168-2.389333-10.410667-3.754667-10.581333-9.557333-20.138667-15.872-29.354667-8.704-12.458667-19.456-23.04-29.696-34.304-1.365333-1.536-3.242667-2.56-5.12-4.096v0.341334z m236.885333 613.717333c3.925333 5.12 8.533333 8.362667 13.141333 11.776 7.168 5.12 14.848 5.802667 22.869334 3.242667 6.485333-2.048 12.458667-5.12 17.92-9.216a87.04 87.04 0 0 0 26.794666-33.450667c3.584-8.021333 5.461333-16.213333 4.949334-25.088-0.341333-4.778667-0.682667-9.728-2.56-14.677333-0.853333 1.024-1.536 1.706667-1.877334 2.389333-4.778667 7.509333-10.752 13.994667-17.237333 19.968-17.92 15.872-36.693333 30.549333-57.856 41.642667-1.877333 1.024-3.754667 2.218667-5.973333 3.584l-0.170667-0.170667z m-79.530667 51.370667q0.512 1.024 0.853334 1.365333c5.632 5.802667 11.776 10.410667 19.114666 13.824 4.608 2.218667 9.557333 2.730667 14.677334 1.365333 8.021333-2.218667 15.189333-6.314667 22.016-10.922666 9.216-6.485333 15.530667-15.189333 19.285333-25.770667 1.024-2.730667 1.194667-5.632 1.877333-8.533333 0.341333-1.365333-0.170667-2.048-1.024-3.072-4.437333-4.266667-8.704-8.704-12.970666-13.141334-0.682667-0.682667-1.365333-1.194667-2.218667-1.877333-3.754667 3.584-7.338667 6.826667-10.581333 10.410667-13.653333 14.506667-29.866667 25.770667-47.445334 34.816-1.024 0.512-2.048 1.024-3.242666 1.706666l-0.341334-0.170666z m149.504-154.282667h-0.853333l-1.877333 2.901333c-5.632 9.898667-12.629333 18.773333-21.162667 26.282667-7.850667 6.997333-15.701333 13.824-23.893333 20.309333-12.629333 10.069333-26.624 18.261333-40.448 26.624-1.024 0.512-1.877333 1.194667-2.901334 1.706667 1.877333 3.584 8.362667 11.264 10.752 12.8 6.656-3.754667 13.312-7.509333 19.968-11.434667 14.677333-8.704 27.989333-19.456 40.96-30.549333 10.069333-8.533333 18.261333-18.944 25.088-30.208 0.682667-1.194667 1.536-2.389333 0.853334-3.925333-2.048-4.778667-4.266667-9.557333-6.314667-14.336l-0.170667-0.170667z m-109.568-264.021333c-4.608-1.194667-8.874667-2.048-12.970666-3.242667-1.365333-0.341333-2.389333 0-3.072 1.024-1.536 2.048-3.072 4.096-4.266667 6.314667-4.608 8.192-8.192 16.896-11.093333 25.941333-5.461333 16.725333-6.314667 33.962667-4.608 51.370667 0.512 5.973333 1.877333 11.946667 3.925333 17.578666 0.682667 2.218667 1.706667 3.584 4.266667 3.925334 2.56 0.341333 4.949333 1.194667 7.509333 1.706666 1.024 0.170667 2.218667 0.341333 3.584 0.512-0.170667-1.877333-0.341333-3.242667-0.512-4.608-1.024-7.168-1.877333-14.336-1.365333-21.504 0.853333-13.653333 2.901333-26.965333 5.290666-40.448 2.389333-12.629333 5.802667-24.917333 12.458667-36.010666 0.341333-0.682667 0.682667-1.536 1.194667-2.730667l-0.341334 0.170667z m7.338667 127.146666c-6.144-1.365333-11.946667-2.730667-17.92-3.925333-1.194667-0.170667-2.048 0.170667-2.56 1.194667l-1.194667 1.706666c-11.434667 17.749333-25.258667 33.28-41.472 46.762667-1.194667 1.024-1.877333 2.218667-2.218666 3.754667-1.194667 5.632-3.584 10.752-6.485334 15.701333-5.12 8.362667-11.093333 16.042667-17.92 23.210667-1.024 1.024-1.877333 2.218667-2.901333 3.242666 0.170667 0.170667 0.341333 0.341333 0.512 0.682667l2.730667-2.218667c9.216-8.362667 18.261333-16.896 27.477333-25.088 14.848-13.482667 29.866667-26.794667 44.885333-40.277333 5.290667-4.608 9.728-9.898667 13.653334-15.701333 1.706667-2.56 3.072-5.12 3.242666-8.874667l0.170667-0.170667z m-3.072 223.061334c-19.968 18.261333-39.936 35.498667-65.024 46.250666 2.218667 2.389333 4.096 4.266667 5.973333 6.314667 2.730667 2.901333 2.901333 3.072 6.485334 1.365333 14.848-6.826667 28.330667-15.701333 40.448-26.794666 5.632-5.12 11.264-9.898667 17.066666-15.018667 0.853333-0.853333 1.706667-1.706667 2.901334-2.730667-2.730667-3.413333-5.12-6.314667-7.68-9.557333l-0.170667 0.170667zM503.978667 406.186667c2.389333 3.072 4.608 5.973333 6.997333 8.874666 0.682667-0.512 1.024-0.853333 1.365333-1.194666 5.461333-6.314667 10.24-12.970667 13.824-20.48 3.925333-7.850667 5.632-16.213333 3.925334-25.088-0.512-2.389333-1.024-4.949333-3.242667-7.509334-5.802667 16.213333-13.312 31.061333-22.869333 45.056v0.341334z m45.397333-19.968c-3.413333-0.853333-3.413333-1.024-4.266667 1.877333-1.877333 7.509333-4.778667 14.336-9.216 20.650667-4.096 5.973333-8.533333 11.605333-12.8 17.408-0.682667 0.853333-1.194667 1.536-1.706666 2.389333 4.266667 6.997333 11.605333 16.213333 13.653333 17.237333-0.170667-20.992 2.56-41.301333 14.165333-59.392l0.170667-0.170666zM643.242667 224.597333c2.730667 0 4.949333 1.365333 6.656 3.754667 3.413333 4.608 6.826667 9.045333 10.24 13.653333 42.666667 57.173333 85.162667 114.517333 127.829333 171.690667 1.194667 1.706667 2.56 3.242667 3.584 5.12 2.218667 3.754667 1.536 8.192-1.877333 10.581333-3.242667 2.389333-7.338667 2.048-10.410667-1.194666-0.853333-0.853333-1.706667-2.048-2.389333-3.072L639.488 240.64c-1.365333-1.706667-2.730667-3.584-3.584-5.461333-2.218667-5.12 1.365333-10.410667 7.168-10.581334h0.170667zM338.602667 681.472c0 4.096-1.536 6.485333-4.437334 7.850667-2.730667 1.194667-5.461333 1.024-7.850666-0.853334-1.365333-1.024-2.389333-2.389333-3.584-3.754666l-71.68-92.16c-13.482667-17.237333-26.794667-34.474667-40.277334-51.712a14.848 14.848 0 0 1-2.730666-5.12c-0.853333-3.242667 0.682667-6.314667 3.413333-8.021334 2.730667-1.706667 6.144-1.536 8.874667 0.512 1.024 0.853333 2.048 2.048 2.901333 3.072 37.034667 47.786667 74.24 95.402667 111.274667 143.189334 0.853333 1.194667 2.048 2.389333 2.730666 3.584 0.682667 1.365333 1.194667 2.901333 1.365334 3.754666v-0.341333zM693.077333 157.696q-2.048-0.853333-3.072-1.706667c-1.365333-1.024-2.389333-2.56-3.754666-3.754666-11.093333-10.24-26.282667-11.776-39.253334-4.266667-0.341333 0.170667-0.853333 0.512-1.194666 0.682667-3.584 2.048-5.973333 1.877333-8.362667-0.853334-2.218667-2.56-2.218667-4.949333 0.512-8.021333 3.242667-3.754667 5.632-8.021333 6.997333-12.629333 2.901333-10.069333 1.024-19.285333-4.608-27.818667-0.682667-1.194667-1.706667-2.218667-2.56-3.413333-2.56-3.242667-2.56-5.802667-0.341333-8.021334 3.072-2.901333 5.973333-3.072 9.216-0.341333 1.877333 1.536 3.754667 3.242667 5.802667 4.608 12.458667 8.192 25.258667 9.728 38.570666 1.536 3.413333-2.218667 5.973333-1.706667 8.362667 1.194667 2.218667 2.730667 2.218667 4.778667 0.341333 7.509333-0.341333 0.341333-0.512 0.682667-0.853333 1.024-9.045333 10.922667-10.069333 22.869333-4.778667 35.498667 1.365333 3.242667 3.242667 6.144 4.949334 9.216 2.389333 4.096-0.512 9.728-5.973334 9.898666v-0.341333zM384.682667 813.397333q-2.048-0.853333-3.072-1.706666c-1.365333-1.024-2.389333-2.56-3.754667-3.754667-11.093333-10.24-26.282667-11.946667-39.253333-4.266667q-0.170667 0-0.341334 0.170667c-3.584 2.901333-6.997333 2.389333-9.216-0.341333-2.389333-2.901333-2.048-4.949333 1.024-8.874667 2.901333-3.584 5.12-7.68 6.485334-12.288 2.730667-9.898667 0.853333-19.114667-4.608-27.648-0.853333-1.194667-1.877333-2.389333-2.730667-3.584-2.218667-3.072-2.389333-5.632 0-7.850667 3.072-2.901333 5.973333-3.072 9.045333-0.682666 2.730667 2.218667 5.461333 4.437333 8.362667 6.314666 11.946667 6.997333 23.893333 7.68 35.84 0.341334 3.754667-2.389333 6.144-2.048 8.533333 0.853333 2.218667 2.56 2.389333 4.778667 0.341334 7.509333-0.341333 0.341333-0.512 0.682667-0.853334 1.024-9.045333 10.922667-10.069333 22.869333-4.778666 35.498667 1.365333 3.242667 3.242667 6.144 4.949333 9.216 2.389333 4.096-0.512 9.728-5.973333 9.898667v0.170666zM854.869333 896.512c0 4.096-1.365333 6.314667-4.096 7.68a7.509333 7.509333 0 0 1-8.192-0.682667c-1.194667-1.024-2.389333-2.218667-3.413333-3.413333-19.626667-23.04-39.424-46.08-59.050667-69.12-0.853333-1.024-1.877333-2.218667-2.389333-3.413333a7.714133 7.714133 0 1 1 11.776-9.557334c0.853333 0.682667 1.706667 1.536 2.389333 2.56 19.968 23.210667 39.765333 46.592 59.733334 69.973334 1.706667 2.048 3.584 4.096 3.413333 5.973333h-0.170667zM155.648 758.954667c-10.581333 0-19.114667-8.874667-19.114667-19.456 0-10.410667 8.533333-18.944 19.114667-19.114667 10.581333 0 19.285333 8.533333 19.285333 19.114667 0 10.581333-8.533333 19.285333-19.285333 19.285333v0.170667z m9.045333-19.285334c0-4.949333-3.754667-8.874667-8.704-9.045333-4.949333 0-9.216 4.096-9.216 9.045333 0 4.778667 3.925333 8.874667 8.874667 9.045334 4.949333 0 9.045333-3.925333 9.045333-9.045334zM813.056 124.928c-10.752 0-19.285333-8.533333-19.285333-19.285333 0-10.581333 8.533333-19.114667 19.114666-19.114667a19.2 19.2 0 1 1 0.170667 38.4z m0-10.24c5.12 0 9.045333-3.925333 8.874667-9.045333 0-4.949333-4.096-8.704-9.045334-8.704-4.949333 0-9.045333 4.437333-9.045333 9.216 0 4.949333 4.096 8.704 9.045333 8.704l0.170667-0.170667z" fill="#000000" p-id="7681"></path></svg>