<?xml version="1.0" standalone="no"?><!DOCTYPE svg PUBLIC "-//W3C//DTD SVG 1.1//EN" "http://www.w3.org/Graphics/SVG/1.1/DTD/svg11.dtd"><svg t="1751767613268" class="icon" viewBox="0 0 1024 1024" version="1.1" xmlns="http://www.w3.org/2000/svg" p-id="7236" xmlns:xlink="http://www.w3.org/1999/xlink" width="200" height="200"><path d="M270.506667 458.069333c-56.490667-19.456-97.109333-55.808-119.637334-111.104-18.090667-44.202667-18.944-89.258667-3.072-134.314666 31.232-89.429333 122.538667-142.336 215.893334-124.245334 52.224 10.069333 93.696 37.717333 123.050666 82.090667 29.354667 44.373333 37.717333 93.013333 27.818667 144.896 6.656 5.973333 10.069333 13.482667 12.8 21.504 1.706667 5.12 2.730667 10.24 2.901333 15.701333 0 1.365333 0 2.56 1.877334 3.242667 8.874667 3.925333 17.92 7.850667 26.624 12.288 30.208 15.36 58.88 33.450667 85.845333 53.930667 10.410667 7.850667 20.309333 16.213333 29.354667 25.6 9.898667 10.24 16.896 22.186667 19.456 36.352 2.730667 14.848 0.682667 29.184-4.778667 43.178666-0.682667 1.877333-1.536 3.925333-2.218667 5.461334 9.898667 14.336 20.48 27.989333 29.013334 43.008 16.554667 29.184 32.426667 58.538667 47.104 88.746666 4.778667 9.557333 8.533333 19.626667 11.605333 29.866667 6.997333 23.381333 2.048 44.202667-13.141333 62.976-8.021333 9.728-16.725333 18.773333-26.453334 26.794667-11.093333 9.386667-23.552 16.213333-37.717333 19.626666-5.290667 1.365333-10.752 1.706667-16.213333 0.853334-1.877333-0.341333-2.901333 0.341333-4.266667 1.536-5.632 5.290667-11.093333 10.581333-17.066667 15.36-12.288 10.069333-26.112 11.605333-41.130666 7.509333a78.506667 78.506667 0 0 1-26.624-13.482667c-8.874667-6.826667-16.554667-14.848-24.405334-22.698666-13.312-13.312-26.453333-26.794667-40.106666-39.765334-10.24-9.728-21.162667-18.602667-31.744-27.818666-13.312-11.434667-26.112-23.552-36.693334-37.546667-0.170667-0.341333-0.341333-0.682667-0.682666-0.853333-3.072-1.536-6.314667-3.072-8.533334-5.802667-0.341333-0.341333-1.194667-0.170667-1.706666-0.170667-8.874667 0.512-16.896-2.901333-24.746667-6.485333-8.874667-4.266667-16.554667-10.24-24.234667-16.384-20.821333-16.384-38.058667-36.181333-54.272-56.832a1357.431467 1357.431467 0 0 1-49.664-66.901333c-6.997333-9.898667-13.482667-19.968-20.138666-30.208-4.096-6.144-7.68-12.458667-9.045334-19.797334-1.024-5.632-0.853333-11.264 0.341334-16.896 0.341333-1.365333 1.024-2.56 1.706666-3.754666 1.024-1.706667 2.218667-3.584 3.242667-5.461334h-0.341333z m135.338666-26.112c1.365333-0.682667 2.389333-1.024 3.413334-1.706666 34.816-18.773333 60.757333-45.909333 77.312-81.92 14.677333-31.744 18.944-65.194667 13.824-99.669334a10.0352 10.0352 0 0 0-2.389334-5.290666c-3.584-4.096-7.168-8.192-10.581333-12.458667-20.992-26.112-41.984-52.053333-62.805333-78.336-3.925333-4.949333-6.997333-10.410667-10.069334-15.872-2.048-3.413333-3.413333-7.168-3.242666-11.264 0-2.56-1.024-3.754667-3.072-4.778667-37.034667-18.773333-75.946667-24.405333-116.565334-15.701333-39.936 8.533333-73.386667 28.501333-98.986666 60.245333-33.792 41.813333-46.08 89.6-36.522667 142.506667 7.68 42.325333 28.842667 76.970667 61.952 104.106667 18.944 15.530667 40.448 26.282667 64.170667 32.768 2.389333 0.682667 4.266667 0.341333 6.314666-1.194667 5.632-4.266667 11.434667-8.362667 17.237334-12.458667 9.728-6.826667 19.797333-13.141333 30.549333-18.261333 14.336-6.826667 28.330667-6.826667 42.496 0.512 7.168 3.584 13.653333 8.021333 19.797333 12.970667 2.389333 1.877333 4.608 3.754667 7.168 5.802666z m205.312 311.808c-0.853333-1.024-1.536-2.048-2.218666-2.901333-2.901333-3.242667-5.632-6.485333-8.704-9.557333-13.653333-14.506667-27.306667-28.842667-40.96-43.349334a11.776 11.776 0 0 1-2.901334-5.12c-0.853333-3.072 0.853333-6.485333 3.584-8.021333 3.072-1.706667 6.144-1.706667 8.874667 0.512 2.389333 1.877333 4.608 4.266667 6.826667 6.485333 10.069333 10.581333 20.138667 21.333333 30.208 31.914667 6.656 7.168 13.141333 14.506667 19.626666 21.674667 0.682667 0.682667 1.365333 1.536 2.048 2.218666 0.682667-0.341333 1.194667-0.512 1.706667-0.853333 4.608-3.072 9.045333-5.973333 13.482667-9.216 15.36-10.922667 30.549333-22.186667 44.373333-34.816 16.042667-14.677333 30.208-31.402667 44.885333-47.274667 1.536-1.706667 1.365333-3.072 0.341334-4.949333-6.826667-12.629333-13.653333-25.088-20.309334-37.717333-10.069333-18.773333-21.674667-36.522667-32.768-54.784-0.170667-0.341333-0.682667-0.512-0.853333-0.853334-0.341333 0.170667-0.682667 0.341333-0.682667 0.512-0.682667 0.853333-1.194667 1.706667-1.877333 2.56-5.973333 8.704-12.8 16.554667-20.992 23.210667-9.557333 7.509333-20.48 11.776-32.768 11.605333-5.802667 0-11.605333-0.853333-17.237333-2.730666-2.56-0.853333-4.266667-0.170667-5.973334 1.706666-6.144 6.485333-11.946667 12.970667-18.602666 18.773334-12.458667 10.922667-25.429333 21.162667-38.058667 31.744-20.992 17.408-42.837333 33.621333-66.218667 47.445333-0.512 0.341333-1.024 0.853333-1.877333 1.365333 0.853333 1.024 1.536 1.877333 2.389333 2.730667 3.242667 3.072 6.314667 6.144 9.557334 9.216 13.653333 12.117333 27.648 23.893333 41.130666 36.181333 12.8 11.605333 25.088 23.893333 37.546667 35.84 1.024 1.024 2.048 1.877333 2.901333 2.730667 7.338667-2.730667 39.594667-22.357333 43.690667-26.624l-0.170667 0.341333z m-127.829333-107.008l1.365333-0.682666c8.021333-7.509333 15.530667-15.189333 22.016-24.234667 5.973333-8.533333 6.314667-17.237333 1.024-26.112-2.730667-4.608-5.461333-9.216-8.362666-13.653333a966.929067 966.929067 0 0 0-68.096-89.6c-11.093333-12.970667-22.016-25.770667-34.816-37.205334-7.509333-6.656-15.189333-12.970667-24.234667-17.578666-9.728-5.12-19.456-5.290667-29.354667-0.341334-8.704 4.266667-16.896 9.216-24.917333 14.677334-0.682667 0.512-1.194667 1.024-1.877333 1.706666 3.072 2.730667 6.144 4.949333 8.874666 7.68 8.021333 7.850667 15.872 15.701333 23.722667 23.552 2.048 2.048 3.413333 4.437333 3.925333 7.168 0.853333 4.949333-3.072 9.216-8.192 8.874667-2.56-0.170667-4.437333-1.877333-6.144-3.584-9.045333-9.386667-18.090667-18.773333-27.306666-27.989333-1.706667-1.877333-3.754667-3.413333-5.632-5.12-1.194667-1.024-2.56-1.536-4.096-0.512-6.144 4.437333-12.288 8.704-18.432 13.141333-0.682667 0.512-1.365333 1.365333-1.536 2.218667-1.024 5.802667-1.536 11.605333 1.365333 17.066666 2.389333 4.437333 5.12 8.874667 7.850667 12.970667 10.069333 14.848 19.968 29.696 30.378666 44.202667 17.237333 24.234667 35.157333 47.786667 54.613334 70.144 12.970667 14.848 27.477333 27.989333 43.349333 39.765333 6.314667 4.778667 13.482667 8.192 21.162667 10.581333 4.608 1.365333 8.704 1.024 12.458666-1.877333 5.802667-4.437333 11.605333-8.874667 17.408-13.482667 0.341333-0.341333 0.512-0.682667 1.024-1.365333-3.072-4.949333-5.973333-10.24-9.557333-14.848-13.824-18.432-27.477333-36.864-41.984-54.784-19.797333-24.576-41.472-47.616-63.146667-70.826667-2.218667-2.389333-2.901333-5.290667-1.706666-8.021333 1.365333-2.901333 3.925333-4.437333 7.338666-4.096 2.389333 0.170667 4.437333 1.365333 6.144 3.072 5.973333 5.802667 12.117333 11.605333 17.749334 17.749333 22.357333 23.722667 43.690667 48.128 63.488 74.24 11.264 14.848 23.210667 29.354667 32.768 45.568 0.341333 0.512 0.853333 1.024 1.365333 1.706667v-0.170667z m45.568-266.24q-0.682667 1.194667-0.853333 1.877334c-3.925333 15.36-12.117333 28.672-22.186667 40.618666-11.776 14.165333-25.770667 25.770667-40.789333 36.181334-2.56 1.706667-3.072 3.584-2.56 6.314666 1.365333 7.338667 4.096 14.336 7.338666 20.992 1.365333 2.56 2.901333 4.608 5.290667 6.314667 21.674667 15.189333 43.178667 30.378667 64.853333 45.568 0.853333 0.682667 1.877333 1.194667 3.242667 2.048 13.824-42.496 32.938667-81.749333 59.392-117.418667-6.314667-5.290667-67.584-40.448-73.728-42.325333v-0.170667z m111.616 69.802667c-1.194667 1.877333-2.389333 3.754667-3.413333 5.632-9.898667 18.090667-19.797333 36.181333-29.696 54.442667-8.874667 16.554667-16.554667 33.450667-23.381334 50.858666-0.512 1.365333-0.853333 2.730667-1.365333 4.266667 10.581333 6.314667 21.333333 11.093333 33.109333 13.141333 11.605333 1.877333 21.674667-1.194667 30.378667-8.874666 4.608-4.096 8.874667-8.533333 12.629333-13.312 9.898667-12.629333 17.237333-26.453333 19.114667-42.666667 1.536-13.312-1.194667-25.770667-9.045333-36.693333-7.509333-10.410667-17.237333-18.602667-27.136-26.453334q-0.341333 0-1.194667-0.512v0.170667z m16.213333 330.581333q0.341333 1.024 0.682667 1.194667c5.802667 5.461333 11.605333 10.752 18.773333 14.336 3.413333 1.706667 6.997333 2.730667 10.752 2.218667 3.754667-0.341333 7.68-0.853333 11.264-2.218667 10.410667-3.754667 20.138667-9.216 28.330667-16.896 5.461333-5.12 10.922667-10.410667 16.042667-16.042667 4.096-4.437333 7.850667-9.216 11.093333-14.336 4.096-6.144 6.656-12.970667 7.168-20.48 0.682667-9.898667-1.706667-19.114667-4.949333-28.330666 0-0.512-0.512-0.853333-1.024-1.877334-27.136 34.474667-58.538667 63.146667-98.133334 82.090667v0.341333z m-147.626666-435.029333c-3.242667 7.850667-6.144 15.189333-9.728 22.357333-3.584 7.168-7.338667 14.165333-11.776 20.992-4.266667 6.656-9.045333 12.970667-13.994667 19.114667-5.12 6.144-10.752 11.946667-16.554667 17.408-5.802667 5.461333-12.117333 10.410667-18.602666 15.189333-6.485333 4.608-13.312 8.704-20.138667 13.141334 3.072 3.242667 6.144 6.314667 9.045333 9.557333 1.194667-0.682667 2.218667-1.024 3.242667-1.706667 5.632-3.413333 11.434667-6.656 17.066667-10.24 16.384-10.581333 31.573333-22.528 44.544-37.205333 7.68-8.874667 14.165333-18.432 18.261333-29.525333 3.584-9.728 4.949333-19.626667 2.389333-29.696-0.853333-3.072-1.536-6.314667-3.754666-9.386667z m59.050666 211.114667c17.237333-40.618667 36.522667-79.701333 60.757334-116.224-4.608-3.242667-9.045333-6.485333-13.653334-9.728-1.194667 1.706667-2.048 3.072-2.901333 4.437333-5.632 9.216-11.434667 18.432-16.896 27.648-14.506667 24.576-26.282667 50.517333-35.157333 77.653333-1.024 3.072-1.706667 6.144-2.730667 9.386667 3.754667 2.389333 6.997333 4.608 10.752 6.997333l-0.170667-0.170666z m173.056 111.104c-1.536 1.877333-2.389333 2.901333-3.413333 4.096-14.848 18.432-31.232 35.498667-49.322667 50.688-15.018667 12.8-31.061333 24.405333-47.445333 35.498666-1.024 0.682667-1.877333 1.536-3.072 2.389334 2.56 2.901333 4.608 5.290667 6.826667 7.850666 1.877333-0.853333 3.242667-1.365333 4.608-2.048 11.093333-5.290667 21.845333-11.434667 31.914666-18.602666 14.336-10.24 27.818667-21.504 39.765334-34.474667l20.821333-22.869333c1.877333-2.048 3.413333-4.096 5.290667-6.144 0.853333-0.853333 1.194667-1.877333 0.682666-3.242667-2.048-4.096-4.096-8.362667-6.485333-13.141333h-0.170667z m-249.002666-124.416c0.853333 1.365333 1.536 2.389333 2.048 3.242666 1.877333 2.730667 3.925333 5.461333 5.802666 8.192 8.704 12.629333 18.261333 24.917333 24.576 39.082667 0 0.170667 0.341333 0.170667 0.512 0.341333 2.901333-1.365333 29.184-24.064 30.549334-26.453333-0.512-0.341333-1.024-0.853333-1.706667-1.194667-10.922667-7.509333-22.016-14.677333-32.768-22.528-4.266667-3.072-8.192-4.437333-13.482667-3.072-4.949333 1.194667-10.069333 1.536-15.701333 2.389334h0.170667z m-4.437334 121.002666c14.165333-6.826667 91.989333-70.144 98.133334-79.189333-5.632-3.072-11.093333-6.144-16.896-9.216-5.290667 5.290667-10.581333 10.24-15.701334 15.530667-7.338667 7.509333-15.36 14.336-24.064 20.48-1.024 0.682667-2.048 1.706667-2.218666 2.901333-2.56 9.386667-7.68 17.408-14.165334 24.576-6.485333 7.168-13.653333 13.994667-20.48 20.821333-1.365333 1.536-3.072 2.730667-4.608 4.096z m115.712 149.504q1.194667 1.194667 1.877334 1.536c6.826667 4.266667 14.165333 7.509333 22.186666 8.874667 6.656 1.024 12.629333 0.170667 18.261334-3.584 5.632-3.754667 10.752-8.021333 15.530666-12.970667 0.341333-0.341333 0.341333-0.682667 0.341334-0.853333l-21.333334-18.773333c-12.288 8.533333-24.405333 17.066667-36.864 25.770666z m-13.653333-11.605333c3.925333-1.365333 35.498667-21.333333 40.96-25.770667l-9.898667-11.434666c-6.997333 5.12-13.482667 9.898667-20.138666 14.506666-6.656 4.437333-13.653333 8.533333-20.48 12.8 3.242667 3.242667 6.485333 6.656 9.728 9.898667h-0.170667z m-124.416-294.058667c2.901333 3.754667 5.461333 7.168 8.192 10.410667 4.949333 6.314667 4.949333 6.485333 12.970667 7.68 3.072 0.512 5.973333 1.194667 10.069333 0.512-1.536-1.194667-2.389333-2.048-3.413333-2.730667l-19.968-13.824a9.728 9.728 0 0 0-7.68-1.877333l-0.170667-0.170667z m-10.24-12.8q0.512-0.341333 0.853333-0.341333c-0.682667-4.266667-3.413333-7.850667-4.437333-12.117333-1.024-4.266667-2.048-8.362667-3.242667-12.970667-3.413333 2.048-6.656 3.584-9.728 5.802667 5.632 6.826667 11.093333 13.141333 16.554667 19.626666zM596.650667 166.912c0 3.925333-1.536 6.144-4.437334 7.68-2.901333 1.365333-6.656 0.853333-9.045333-1.706667a168.618667 168.618667 0 0 1-10.24-11.776c-12.117333-15.36-24.576-30.549333-38.229333-44.714666-16.554667-17.237333-34.986667-31.914667-54.272-45.909334-6.826667-4.949333-13.482667-9.898667-20.309334-14.677333-4.266667-2.901333-8.704-5.461333-12.970666-8.021333-2.218667-1.365333-4.096-2.730667-4.437334-5.461334-0.853333-5.461333 3.925333-9.557333 9.216-7.68 3.242667 1.024 6.314667 2.56 9.216 4.266667 5.290667 3.072 10.752 6.144 15.701334 9.728 20.309333 14.165333 40.277333 28.842667 58.197333 45.909333 14.336 13.653333 27.477333 28.501333 39.936 43.861334 6.314667 7.68 12.629333 15.530667 19.114667 23.210666 1.536 1.877333 2.901333 3.754667 2.730666 5.632l-0.170666-0.341333zM728.064 207.018667c-5.802667 0-11.264 1.536-16.213333 4.437333-0.853333 0.512-1.536 1.024-2.389334 1.365333-3.072 1.706667-5.461333 1.365333-7.68-1.365333-2.048-2.56-2.218667-4.778667 0-7.509333 3.754667-4.437333 6.656-9.386667 8.021334-15.36 2.218667-9.898667 0-18.944-5.973334-26.965334-0.682667-1.024-1.706667-2.048-2.389333-3.072-1.877333-2.56-1.877333-4.949333 0-6.997333 2.389333-2.56 5.632-3.242667 8.192-1.706667 1.024 0.682667 2.048 1.536 2.901333 2.389334 5.973333 4.949333 12.458667 8.533333 20.138667 9.728 6.997333 1.194667 13.653333 0 19.797333-3.413334 1.024-0.512 2.048-1.194667 3.072-1.706666 3.413333-1.877333 5.632-1.536 8.021334 1.194666 2.389333 2.730667 2.389333 5.12 0 8.192-3.413333 4.096-6.144 8.533333-7.338667 13.653334-1.877333 8.021333-1.024 15.872 2.56 23.381333 1.365333 2.730667 2.901333 5.290667 4.437333 7.850667 2.218667 3.754667 1.024 7.68-2.730666 9.728a4.608 4.608 0 0 1-5.461334-0.682667c-1.024-0.853333-1.877333-1.877333-2.730666-2.730667-6.656-6.826667-14.677333-10.581333-24.234667-10.581333v0.170667zM438.442667 874.154667q-1.877333-1.024-3.072-1.877334c-1.194667-1.024-2.218667-2.389333-3.413334-3.413333-10.922667-10.24-26.453333-11.946667-39.253333-4.437333-0.682667 0.341333-1.194667 0.682667-1.706667 1.024-3.584 2.048-6.485333 1.194667-8.704-2.048a4.881067 4.881067 0 0 1 0-5.632c0.512-0.853333 1.194667-1.536 1.706667-2.218667 10.410667-12.629333 10.581333-29.184 0.512-41.984-0.512-0.682667-1.194667-1.365333-1.706667-2.218667-1.877333-2.56-1.877333-5.12 0.170667-6.997333 2.56-2.389333 5.12-3.584 8.192-1.706667 1.024 0.682667 2.048 1.536 2.901333 2.389334 5.290667 4.437333 11.264 7.850667 18.090667 9.386666 8.021333 1.706667 15.530667 0.682667 22.528-3.413333 0.853333-0.512 1.706667-1.024 2.730667-1.536 3.072-1.706667 5.461333-1.194667 7.68 1.365333 2.218667 2.56 2.389333 5.12 0 7.850667-3.413333 4.096-6.314667 8.533333-7.509334 13.994667-1.877333 8.021333-1.024 15.872 2.56 23.381333 1.365333 2.901333 3.242667 5.632 4.778667 8.533333 2.218667 4.096-1.024 9.728-6.485333 9.557334zM577.877333 949.76c0 3.584-1.536 5.973333-4.266666 7.338667-2.730667 1.365333-5.461333 1.194667-7.850667-0.512-1.024-0.853333-2.048-1.877333-2.901333-2.901334-26.112-32.597333-52.053333-65.194667-78.165334-97.792a12.970667 12.970667 0 0 1-2.56-4.778666 6.997333 6.997333 0 0 1 3.413334-8.021334c2.901333-1.706667 5.973333-1.706667 8.704 0.512 1.024 0.853333 1.877333 1.706667 2.730666 2.730667 25.941333 32.426667 51.882667 64.853333 77.653334 97.109333 1.706667 2.048 3.413333 4.266667 3.242666 6.485334v-0.170667zM882.858667 931.157333c-0.341333 3.413333-1.706667 5.802667-4.608 7.168-2.901333 1.365333-5.632 1.194667-8.192-0.853333a12.834133 12.834133 0 0 1-2.56-2.730667l-60.928-75.776c-1.536-1.877333-2.730667-4.096-2.56-6.656 0.512-5.802667 6.997333-9.045333 11.946666-5.802666 1.194667 0.853333 2.218667 1.877333 3.242667 3.072 19.797333 24.576 39.594667 49.152 59.392 73.898666 0.853333 1.024 1.877333 2.048 2.56 3.242667 0.682667 1.365333 1.194667 2.901333 1.706667 4.437333zM183.125333 765.44c10.752 0 19.285333 8.533333 19.114667 19.285333 0 10.752-8.704 19.114667-19.456 19.114667-10.581333 0-18.944-8.533333-18.944-19.114667 0-10.922667 8.362667-19.285333 19.114667-19.285333h0.170666z m0 27.989333c5.12 0 9.045333-4.096 8.874667-9.045333 0-4.778667-4.096-8.704-9.045333-8.704-4.949333 0-8.874667 4.266667-8.874667 9.216 0 4.949333 3.925333 8.704 9.045333 8.533333zM842.752 124.245333c10.752 0 19.285333 8.533333 19.285333 19.285334 0 10.581333-8.704 19.285333-19.456 19.114666-10.581333 0-19.114667-8.533333-19.114666-19.114666 0-10.752 8.362667-19.285333 19.114666-19.285334h0.170667z m-0.170667 27.989334a8.891733 8.891733 0 0 0 0.682667-17.749334c-4.778667 0-9.216 4.096-9.216 8.874667s3.754667 8.874667 8.704 8.874667h-0.170667z" fill="#000000" p-id="7237"></path><path d="M464.896 261.632c-0.170667 6.314667-1.877333 12.117333-5.12 17.578667A64.341333 64.341333 0 0 1 428.373333 307.2c-2.730667 1.194667-5.802667 1.877333-8.704 2.389333-6.144 1.024-11.776-0.341333-16.896-3.925333-2.56-1.706667-4.949333-3.584-7.168-5.632-12.8-12.458667-24.746667-25.6-35.157333-40.106667-5.290667-7.338667-9.728-15.189333-14.336-23.04-3.584-6.314667-4.778667-13.141333-2.730667-20.138666 0.853333-2.901333 2.048-5.973333 3.754667-8.533334 2.56-3.584 5.632-6.826667 8.874667-9.728 9.216-8.021333 19.456-14.677333 30.037333-20.821333 10.069333-5.973333 20.650667-2.048 26.282667 3.754667 5.632 5.802667 11.264 11.434667 16.213333 17.749333 8.362667 10.410667 16.384 21.162667 24.405333 31.744 4.778667 6.314667 8.704 12.970667 10.24 20.821333 0.682667 3.242667 1.024 6.656 1.365334 9.898667h0.341333z m-16.213333 1.365333c-0.170667-5.461333-0.682667-9.386667-2.56-12.970666-1.877333-3.413333-3.754667-6.997333-6.144-10.069334-7.68-10.24-15.36-20.48-23.381334-30.378666-4.437333-5.632-9.557333-10.752-14.506666-15.872-3.584-3.754667-7.68-4.096-11.776-1.024-6.656 4.949333-13.482667 9.898667-19.968 15.189333-3.072 2.389333-5.802667 5.12-8.362667 7.850667-3.584 3.754667-3.925333 8.192-1.877333 12.970666 1.024 2.389333 2.389333 4.608 3.584 6.826667 7.509333 13.653333 17.237333 25.6 27.648 37.034667 5.461333 6.144 11.434667 11.946667 17.237333 17.749333 4.266667 4.266667 9.216 4.778667 14.677333 2.218667 10.410667-4.778667 18.432-12.117333 23.552-22.357334 1.194667-2.56 1.706667-5.461333 2.048-6.826666l-0.170666-0.341334z" fill="#000000" p-id="7238"></path></svg>