<?xml version="1.0" standalone="no"?><!DOCTYPE svg PUBLIC "-//W3C//DTD SVG 1.1//EN" "http://www.w3.org/Graphics/SVG/1.1/DTD/svg11.dtd"><svg t="1751767619332" class="icon" viewBox="0 0 1024 1024" version="1.1" xmlns="http://www.w3.org/2000/svg" p-id="7532" xmlns:xlink="http://www.w3.org/1999/xlink" width="200" height="200"><path d="M705.024 513.365333c15.018667 20.138667 24.405333 42.154667 30.72 65.706667 4.437333 16.384 7.338667 33.109333 10.069333 49.834667 0.853333 5.12 1.536 10.410667 2.389334 15.530666 1.706667 10.922667 6.314667 20.821333 10.24 31.061334 7.68 19.626667 15.189333 39.253333 22.528 58.88 3.242667 8.533333 3.413333 17.237333 0.853333 26.112-0.512 1.706667-0.853333 3.413333-1.365333 5.12-2.218667 8.874667-6.656 16.725333-13.141334 23.04-16.213333 15.530667-34.474667 27.818667-55.808 35.498666-11.946667 4.266667-23.893333 3.584-35.84-0.170666-16.213333-5.12-30.378667-13.824-43.178666-24.917334-10.752-9.557333-21.504-19.285333-32.256-28.842666-12.458667-11.264-25.941333-21.162667-41.301334-28.330667-8.533333-4.096-16.384-9.216-23.722666-15.36-4.096-3.413333-8.021333-6.656-12.117334-9.898667-6.997333-5.461333-12.970667-12.117333-17.578666-19.626666-1.365333-2.218667-2.730667-4.266667-4.266667-6.656-1.365333 0.341333-2.56 0.682667-3.754667 1.024-3.754667 1.194667-7.509333 1.877333-11.264 1.536-6.485333-0.341333-11.434667-3.413333-15.701333-8.021334-5.12-5.632-8.362667-12.288-10.752-19.285333-0.341333-1.024-0.853333-2.218667-1.024-3.413333-0.512-4.437333-2.901333-8.021333-5.632-11.264-9.045333-11.093333-16.554667-23.381333-23.722667-35.669334-13.312-23.04-26.112-46.421333-37.717333-70.314666-5.290667-10.752-9.216-22.016-12.970667-33.450667-0.341333-1.194667-0.682667-2.389333-1.024-4.096l-8.021333-1.024c-12.288-1.706667-23.210667-6.314667-32.085333-15.36a11.690667 11.690667 0 0 1-2.730667-3.925333c-0.682667-2.218667-2.048-2.730667-4.096-2.901334-12.629333-0.682667-24.917333-2.901333-37.034667-6.314666a190.651733 190.651733 0 0 1-135.168-141.312c-4.266667-18.773333-5.802667-37.888-4.266666-57.173334 7.338667-87.04 68.949333-153.770667 147.285333-172.032a191.044267 191.044267 0 0 1 212.650667 97.962667c11.605333 22.186667 18.432 45.909333 20.821333 70.826667 0.512 4.437333 0.512 9.045333 0.853333 14.165333 1.536-1.024 2.56-1.536 3.413334-2.218667 4.949333-3.584 10.410667-6.485333 16.042666-9.045333a43.178667 43.178667 0 0 1 32.938667-0.682667c8.704 3.242667 16.554667 7.850667 24.064 13.141334 18.261333 12.8 34.474667 27.989333 49.152 44.714666a655.530667 655.530667 0 0 1 58.026667 77.141334c5.802667 9.045333 10.922667 18.432 15.189333 28.16 2.901333 6.485333 5.12 12.970667 5.290667 20.138666 0.170667 11.434667-3.754667 21.674667-11.093334 30.378667-6.144 7.338667-13.482667 13.141333-20.992 18.773333-1.024 0.682667-2.048 1.536-3.072 2.389334l0.170667 0.170666zM352.597333 467.626667h4.096c9.728-0.682667 19.456-2.048 28.842667-4.437334 85.162667-20.48 141.482667-100.181333 133.12-186.538666a174.301867 174.301867 0 0 0-227.328-149.674667 174.592 174.592 0 0 0-118.784 137.728c-0.170667 1.194667-0.682667 2.389333 0.170667 3.754667 1.024-0.853333 1.877333-1.365333 2.56-2.048 5.802667-4.608 12.288-7.850667 19.626666-9.557334 11.776-2.730667 23.381333-2.048 34.816 1.024 15.189333 4.096 28.672 11.434667 41.301334 20.48 21.162667 15.36 38.4 34.474667 52.565333 56.149334 17.408 26.624 29.696 55.296 33.28 87.04 1.706667 14.165333 1.024 28.330667-3.242667 42.154666-0.341333 1.024-0.682667 2.218667-1.024 3.754667v0.170667z m262.826667 293.888q1.365333-0.512 1.877333-0.853334c11.776-6.826667 23.722667-13.482667 35.157334-20.650666 21.162667-13.482667 40.448-29.354667 59.221333-45.909334 8.874667-7.68 17.066667-16.042667 24.234667-25.6 1.365333-1.706667 1.365333-3.072 0.682666-5.12-1.365333-4.778667-2.901333-9.557333-3.754666-14.506666-3.413333-17.92-6.314667-35.84-9.728-53.76-3.925333-20.650667-11.434667-40.106667-21.674667-58.538667-1.536-2.56-3.242667-5.12-4.778667-7.68-0.512-0.682667-1.194667-1.194667-1.877333-1.877333-2.218667 3.242667-4.096 6.314667-6.314667 9.045333-4.096 4.778667-8.362667 9.386667-12.8 13.824-1.194667 1.365333-1.877333 2.389333-1.365333 4.266667 0.512 2.048 0.853333 4.266667 1.024 6.485333 0.682667 7.68-1.536 14.677333-5.290667 21.333333-5.973333 11.093333-14.506667 20.309333-24.064 28.16-15.018667 12.288-32.256 18.602667-51.882666 17.749334-2.048 0-3.584 0.341333-5.12 1.706666-7.168 6.314667-14.506667 12.288-22.698667 17.237334-4.096 2.56-8.192 5.461333-12.117333 8.021333-12.970667 8.704-25.770667 17.92-39.594667 25.429333a5.461333 5.461333 0 0 0-1.194667 1.024c4.437333 5.802667 8.192 11.946667 13.824 16.725334 6.656 5.632 13.312 11.264 20.138667 16.725333 5.973333 4.949333 12.458667 9.045333 19.456 12.288 12.970667 6.144 24.917333 14.165333 36.010667 23.210667 4.266667 3.584 8.362667 7.338667 12.8 11.093333l-0.170667 0.170667z m-80.213333-451.925334q0.682667 1.024 0.853333 1.365334c6.314667 7.338667 10.069333 15.701333 11.776 25.258666 1.706667 9.386667 1.194667 18.773333-0.682667 27.989334-0.682667 3.413333-1.194667 6.314667 1.365334 9.557333 3.925333 4.949333 6.826667 10.752 10.24 16.213333 10.410667 16.213333 20.992 32.426667 33.621333 47.104 12.8 14.848 25.941333 29.525333 38.912 44.202667 8.192 9.045333 16.384 18.090667 24.746667 26.965333 2.389333 2.56 5.290667 4.778667 8.192 6.997334 3.242667 2.56 6.656 2.218667 10.069333 0 9.045333-6.314667 18.090667-12.8 26.965333-19.114667 4.778667-3.413333 4.949333-4.266667 2.389334-9.728-1.877333-3.925333-4.096-7.850667-6.314667-11.605333-6.997333-11.264-13.994667-22.528-21.162667-33.621334-17.066667-26.112-34.474667-52.224-51.541333-78.336a29.354667 29.354667 0 0 1-3.413333-6.485333c-1.365333-3.925333 0-7.509333 3.584-9.216 3.413333-1.706667 6.826667-0.341333 9.216 3.242667 1.194667 1.877333 2.56 3.584 3.754666 5.461333 4.096 5.461333 8.533333 10.752 12.288 16.554667 16.725333 25.258667 33.450667 50.688 50.005334 76.117333 6.144 9.557333 11.776 19.456 17.578666 29.354667 0.341333 0.512 0.682667 0.853333 1.194667 1.706666 0.853333-1.365333 1.536-2.389333 2.218667-3.413333 4.266667-8.192 4.096-16.554667 0.512-24.917333-3.754667-8.874667-8.192-17.237333-13.141334-25.429334-17.578667-28.330667-37.717333-54.784-59.562666-79.872-13.482667-15.36-28.330667-29.184-45.056-40.96a88.746667 88.746667 0 0 0-17.408-10.069333c-0.682667-0.341333-1.536-0.512-3.072-0.853333 0.853333 1.024 1.194667 1.536 1.536 1.877333 10.922667 10.410667 19.626667 22.528 28.501333 34.816 0.682667 1.024 1.536 2.048 1.877333 3.242667 1.536 3.754667 0.512 7.68-2.730666 9.898666-3.754667 2.56-8.362667 1.706667-11.434667-2.730666-9.386667-13.653333-19.968-26.282667-31.061333-38.4-1.536-1.706667-2.901333-3.413333-4.266667-4.949334-2.730667-2.901333-4.778667-3.242667-8.192-1.706666-6.485333 2.901333-12.288 6.656-17.92 10.752-1.365333 1.024-2.56 1.877333-3.925333 3.072l-0.512-0.341334z m65.536 179.370667l-2.901334-2.901333c-17.408-15.701333-34.816-31.573333-52.224-47.274667a10.410667 10.410667 0 0 0-2.730666-2.048c-7.850667-4.266667-15.872-7.68-25.258667-5.973333h-0.682667c-2.389333-0.682667-3.754667 0.682667-5.290666 2.389333-9.898667 12.117333-20.992 23.04-33.28 32.597333-6.826667 5.290667-13.824 10.24-20.992 15.018667-2.218667 1.536-3.072 2.901333-2.56 5.461333 0.341333 1.536 0.341333 3.072 0.682666 4.437334 2.218667 8.362667 5.461333 15.872 11.776 22.016 6.144 6.144 12.117333 12.629333 18.090667 18.944 10.24 10.752 20.309333 21.674667 30.549333 32.597333 1.536 1.536 3.242667 3.072 4.949334 4.778667 20.309333-33.109333 49.322667-57.002667 79.872-80.042667z m-42.837334 109.568c4.949333 3.754667 10.069333 6.144 15.36 8.362667 15.018667 6.656 30.378667 7.168 45.738667 1.024 15.872-6.485333 27.306667-18.090667 36.352-32.256 4.949333-7.68 4.949333-15.701333 1.194667-23.893334-4.437333-9.557333-10.069333-18.090667-17.237334-25.6-1.877333-2.048-2.048-2.218667-4.437333-0.853333-4.096 2.048-8.021333 4.096-11.946667 6.485333-24.576 15.189333-44.373333 35.498667-60.586666 59.392-1.536 2.218667-2.901333 4.778667-4.437334 7.509334v-0.170667z m202.410667 125.44c-1.194667 1.194667-2.048 2.048-2.901333 2.730667-3.413333 3.242667-6.656 6.826667-10.410667 9.898666-14.165333 12.288-29.184 23.381333-44.544 34.133334-13.824 9.728-27.989333 19.285333-43.690667 25.770666-0.341333 0-0.512 0.341333-1.194666 0.853334 1.194667 0.853333 2.048 1.536 3.072 2.218666 6.826667 4.096 14.165333 6.826667 21.674666 9.216 8.192 2.56 16.384 2.56 24.576-0.512 17.408-6.485333 32.426667-16.554667 46.250667-28.672 1.536-1.365333 2.901333-2.730667 4.096-4.266666 6.997333-7.68 8.874667-17.408 10.069333-27.306667v-0.682667c-0.853333-8.192-4.608-15.36-7.168-23.552l0.170667 0.170667z m-15.872-39.765333c-34.474667 35.328-72.533333 65.877333-116.736 88.405333 0.682667 0.682667 1.194667 1.536 1.877333 2.048 3.754667 3.413333 7.68 6.656 11.434667 10.24 1.706667 1.706667 3.242667 1.536 5.290667 0.682667 7.850667-3.242667 15.189333-7.68 22.528-11.946667 18.773333-10.922667 36.010667-23.893333 53.248-37.034667 10.922667-8.192 20.992-17.237333 30.037333-27.477333 1.024-1.194667 2.048-2.048 1.194667-3.925333-2.56-6.144-4.949333-12.458667-7.509334-18.773334a9.6768 9.6768 0 0 0-1.365333-2.218666z m-277.162667-42.666667c21.504-13.824 42.666667-27.477333 64-41.813333-1.194667-1.024-1.877333-1.877333-2.901333-2.56-2.730667-2.389333-5.461333-4.608-8.192-6.997334-11.264-9.898667-21.845333-20.48-32.085333-31.573333-1.194667-1.365333-2.389333-2.389333-4.437334-2.389333-6.826667-0.341333-13.653333-1.536-19.968-4.096l-2.048-0.512v0.853333c0.512 0.853333 1.194667 1.706667 1.877334 2.56 8.192 10.581333 15.018667 22.016 21.504 33.792 4.096 7.509333 3.413333 13.141333-2.389334 19.456-1.877333 2.048-3.754667 3.754667-5.802666 5.461333-5.290667 4.266667-11.264 7.338667-17.408 10.069334-1.194667 0.512-2.218667 1.024-3.754667 1.706666 3.413333 5.632 6.997333 10.922667 11.605333 15.872v0.170667z m-111.445333-157.525333c2.730667 2.389333 5.12 3.242667 7.338667 3.925333 9.728 3.242667 19.626667 3.242667 29.696 1.877333 11.946667-1.706667 23.210667-5.461333 34.133333-10.581333 30.72-14.165333 55.978667-35.157333 76.629333-61.610667 10.24-13.141333 18.602667-27.306667 24.064-43.008 3.584-10.24 5.461333-20.650667 4.778667-31.402666 0-2.048-0.512-4.096-0.853333-5.973334h-1.024c-3.242667 12.970667-7.68 25.770667-13.482667 38.058667s-12.970667 23.893333-21.333333 34.645333a189.610667 189.610667 0 0 1-61.610667 52.053334c-12.117333 6.485333-24.576 11.434667-37.717333 15.189333-12.970667 3.754667-26.453333 5.802667-40.789334 6.997333l0.170667-0.170666z m188.757333 125.952q-0.341333 0-0.512 0.341333c-22.869333 15.189333-45.056 31.232-69.632 43.861333-1.536 0.853333-1.877333 1.706667-1.365333 3.413334 2.218667 6.144 5.461333 11.605333 9.728 16.384 0.682667 0.682667 1.536 1.536 2.389333 1.877333 1.194667 0.341333 2.56 0.682667 3.584 0 6.485333-3.242667 13.312-6.314667 19.456-10.069333 10.581333-6.485333 20.992-13.312 31.402667-20.138667 9.045333-5.973333 18.090667-12.117333 27.136-18.261333 1.365333-1.024 2.56-2.048 3.925333-3.242667l-26.282666-14.165333h0.170666zM208.725333 296.448c-2.56 0-5.12 0.341333-7.68 0.512h-1.365333a8.704 8.704 0 0 0-7.509333 6.826667c-0.853333 3.413333 0.853333 6.997333 3.925333 9.045333 1.877333 1.194667 3.925333 1.365333 5.973333 1.194667 3.072-0.170667 5.973333-0.512 9.045334-0.341334 12.970667 0.512 25.258667 4.096 36.352 10.922667 15.701333 9.557333 27.306667 22.698667 32.768 40.618667 0.341333 1.024 0.682667 2.048 1.194666 2.901333 1.706667 2.901333 4.437333 4.437333 7.850667 4.096 3.413333-0.170667 5.802667-2.048 7.168-5.290667 1.024-2.218667 0.853333-4.608 0-6.826666-1.706667-4.608-3.072-9.386667-5.461333-13.482667-17.92-32.256-45.909333-47.957333-82.261334-50.176z m206.506667 257.877333c10.24 19.456 20.48 38.4 31.573333 57.173334 9.045333-3.925333 18.090667-7.168 24.405334-14.848-10.410667-19.285333-22.528-37.034667-37.888-52.224-5.632 3.072-11.093333 5.802667-16.384 8.704-0.512 0.341333-1.024 0.682667-1.877334 1.194666h0.170667z m130.218667 35.498667c19.114667-34.133333 46.250667-59.221333 79.872-78.336l-11.605334-11.093333c-1.706667 1.024-3.413333 1.706667-4.778666 2.730666-7.509333 5.632-15.189333 11.264-22.357334 17.237334-18.261333 15.018667-34.816 31.744-48.981333 50.858666-1.365333 1.877333-2.730667 3.754667-3.925333 5.632-0.853333 1.365333-0.853333 2.56 0.512 3.754667 3.754667 3.072 7.338667 5.973333 11.264 9.216z m-136.704-48.469333c7.509333-4.778667 14.677333-9.386667 22.016-13.994667-5.632-8.362667-9.386667-17.578667-11.776-27.306667l-25.941334 6.144c4.608 11.776 10.069333 23.210667 15.701334 35.157334z m171.178666-93.866667l0.341334-0.341333c-0.170667-0.341333-0.341333-0.853333-0.682667-1.194667-9.216-11.264-17.749333-22.869333-25.770667-35.157333-0.512-0.682667-1.024-1.536-1.877333-2.048-4.949333-2.730667-10.069333-5.290667-15.189333-7.850667-2.048-1.024-2.730667-0.512-3.925334 1.536-1.536 2.730667-3.242667 5.461333-4.778666 8.021333-0.682667 1.194667-1.536 2.56-2.389334 4.096 2.389333 0.341333 4.437333 0.512 6.314667 1.024 8.021333 1.706667 16.042667 3.925333 22.869333 8.874667 1.877333 1.365333 3.413333 3.413333 5.290667 4.949333 5.802667 5.290667 11.605333 10.752 17.408 16.042667 0.682667 0.682667 1.536 1.194667 2.218667 1.877333l0.170666 0.170667z m-112.128 88.064l-2.048-2.730667c-3.072-4.096-7.338667-7.168-10.581333-11.093333-6.826667-8.533333-13.312-17.749333-15.189333-29.013333 0-0.512-0.341333-0.853333-0.682667-1.706667-2.048 1.024-3.925333 1.877333-5.632 2.56-1.024 13.482667 18.261333 37.376 34.133333 41.813333v0.170667z m199.338667 0.512c1.024-1.194667 1.706667-2.048 2.56-3.242667h-4.266667c0.512 1.024 0.853333 1.877333 1.706667 3.242667zM144.896 415.061333c2.56 0 4.608 1.536 6.314667 3.584 6.144 7.168 12.288 14.165333 18.602666 21.333334l109.568 125.952c1.024 1.194667 2.048 2.56 3.242667 3.754666 3.242667 3.242667 3.072 8.874667-0.170667 11.605334-3.413333 2.901333-8.192 2.56-11.776-1.365334-4.096-4.608-8.192-9.216-12.117333-13.994666-39.424-45.226667-78.677333-90.453333-118.101333-135.68-1.024-1.194667-2.048-2.218667-2.730667-3.584-3.072-5.290667 0.682667-11.605333 7.168-11.605334zM550.741333 143.189333c0-4.266667 1.536-6.656 4.437334-8.192 3.072-1.536 5.973333-0.853333 8.362666 1.194667 0.853333 0.682667 1.365333 1.536 2.048 2.389333l103.082667 132.266667c0.853333 1.024 1.706667 2.218667 2.389333 3.413333 1.877333 3.584 1.194667 7.68-1.877333 10.069334-3.072 2.389333-7.168 2.218667-10.24-0.682667-0.853333-0.853333-1.706667-1.877333-2.56-2.901333-33.621333-43.178667-67.242667-86.357333-101.034667-129.536-1.024-1.365333-2.389333-2.730667-3.242666-4.096-0.853333-1.365333-1.365333-3.072-1.706667-3.925334h0.341333zM875.861333 325.632c-0.341333 3.584-2.048 5.461333-4.266666 6.656-2.048 1.024-4.266667 0.341333-6.314667-1.706667-1.365333-1.365333-2.56-2.730667-3.925333-3.925333-10.922667-9.728-25.941333-11.093333-38.570667-3.754667-0.682667 0.341333-1.365333 0.853333-2.048 1.194667-2.901333 1.706667-5.290667 1.194667-7.509333-1.194667-2.218667-2.56-2.389333-5.12 0-7.850666 4.096-4.949333 7.168-10.24 8.192-16.725334 1.706667-9.386667-0.853333-17.92-6.314667-25.6-0.682667-1.024-1.706667-2.048-2.389333-3.072-1.706667-2.389333-1.706667-4.778667 0-6.656 2.389333-2.730667 5.632-3.413333 8.021333-2.048 1.024 0.682667 2.048 1.536 2.901333 2.389334 5.461333 4.608 11.434667 8.021333 18.432 9.557333 7.509333 1.536 14.848 0.682667 21.674667-2.901333 1.194667-0.682667 2.218667-1.365333 3.242667-1.877334 3.072-1.706667 5.461333-1.365333 7.850666 1.194667 2.56 2.730667 2.56 5.12 0 8.021333-3.925333 4.608-6.826667 9.728-7.850666 15.701334-1.365333 7.168-0.170667 14.165333 2.730666 20.821333 1.194667 2.901333 3.072 5.461333 4.437334 8.192 0.682667 1.365333 1.194667 2.730667 1.536 3.584h0.170666zM331.264 739.498667c1.024 0.512 2.389333 1.365333 3.754667 2.218666 3.072 2.048 5.802667 4.608 9.045333 6.485334 11.605333 6.485333 23.210667 6.826667 34.645333-0.170667 4.266667-2.56 7.168-1.877333 9.557334 1.706667 1.194667 2.048 1.365333 3.925333 0 5.802666l-1.194667 1.706667c-9.216 11.093333-10.24 23.210667-4.608 36.181333 1.194667 2.901333 3.072 5.632 4.778667 8.533334 1.194667 2.218667 1.536 4.266667 0 6.485333-2.901333 4.266667-6.485333 4.608-10.069334 0.853333-5.973333-6.656-13.312-10.752-22.357333-11.605333-6.314667-0.682667-12.288 0.682667-17.92 3.413333-1.024 0.512-2.048 1.194667-3.072 1.706667-3.754667 2.218667-6.144 2.048-8.362667-0.682667-2.389333-2.730667-2.218667-5.12 0.341334-8.362666 3.242667-3.754667 5.632-8.021333 6.997333-12.8 2.901333-10.24 0.853333-19.456-4.949333-28.16-0.853333-1.194667-1.706667-2.218667-2.56-3.242667-1.536-1.877333-2.218667-3.925333-1.024-6.144 1.365333-2.389333 3.584-3.584 6.826666-4.096l0.170667 0.170667zM848.554667 896c0 3.925333-1.536 6.314667-4.437334 7.68-2.730667 1.194667-5.461333 1.024-7.850666-0.853333-1.365333-1.194667-2.56-2.730667-3.584-4.266667-15.36-20.821333-30.72-41.813333-46.08-62.634667-1.365333-1.877333-2.901333-3.754667-4.266667-5.632-2.730667-3.925333-2.218667-8.704 1.536-11.434666 3.754667-2.730667 8.362667-1.877333 11.264 2.048 17.066667 23.210667 34.133333 46.421333 51.2 69.802666 1.365333 1.877333 2.56 3.754667 2.389333 5.290667h-0.170666zM247.466667 887.296c-10.581333 0-19.114667-8.874667-19.114667-19.456 0-10.410667 8.704-18.944 19.114667-18.944 10.581333 0 19.285333 8.704 19.285333 19.285333 0 10.581333-8.704 19.285333-19.285333 19.114667z m9.045333-19.114667c0-4.949333-3.754667-8.874667-8.704-9.045333-4.949333 0-9.216 4.096-9.216 8.874667s3.925333 8.874667 8.874667 9.045333c4.949333 0 9.045333-3.925333 9.216-9.045333l-0.170667 0.170666z" fill="#000000" p-id="7533"></path><path d="M314.88 275.797333c0-5.973333 1.706667-11.264 5.461333-15.872 6.144-7.68 13.141333-14.506667 21.333334-19.968 4.778667-3.242667 9.728-6.485333 14.848-9.216 8.874667-4.949333 17.408-4.096 25.6 1.706667 7.338667 5.290667 13.653333 11.605333 18.602666 19.285333 7.168 11.093333 13.994667 22.528 20.821334 33.792 2.389333 4.096 4.437333 8.362667 6.826666 12.629334 3.584 6.485333 5.461333 13.482667 5.632 20.992 0 2.218667-0.512 4.608-1.536 6.656-1.877333 4.096-4.437333 7.68-7.850666 10.581333-7.509333 6.314667-15.36 12.117333-23.722667 17.066667-4.778667 2.730667-9.728 4.778667-15.36 5.290666-7.850667 0.853333-15.018667-0.853333-21.333333-5.802666-2.048-1.536-3.925333-3.242667-5.632-5.290667a316.416 316.416 0 0 1-35.669334-48.128c-3.584-5.973333-6.314667-12.458667-7.509333-19.456l-0.512-4.437333v0.170666z m67.072 67.072c4.437333 0.341333 8.362667-1.365333 11.776-3.754666 6.485333-4.437333 12.8-9.216 19.114667-13.824 1.365333-1.024 2.389333-2.389333 3.584-3.754667 1.024-1.365333 1.365333-2.730667 1.194666-4.608-0.512-3.925333-1.706667-7.509333-3.413333-10.922667-2.389333-4.437333-4.608-8.874667-7.168-13.141333-6.485333-10.581333-12.8-21.162667-19.626667-31.744-3.584-5.632-8.533333-10.410667-13.653333-14.677333-3.584-2.901333-7.168-3.242667-11.264-0.853334-10.410667 6.314667-20.48 13.312-29.354667 21.674667-3.754667 3.413333-4.096 7.338667-2.730666 11.776 1.024 3.072 2.389333 5.973333 3.925333 8.874667 7.509333 13.653333 16.896 26.112 26.624 38.229333 3.413333 4.266667 7.168 8.533333 10.922667 12.629333 2.56 2.901333 5.802667 4.608 9.728 4.096h0.341333z" fill="#000000" p-id="7534"></path></svg>