<?xml version="1.0" standalone="no"?><!DOCTYPE svg PUBLIC "-//W3C//DTD SVG 1.1//EN" "http://www.w3.org/Graphics/SVG/1.1/DTD/svg11.dtd"><svg t="1751767628022" class="icon" viewBox="0 0 1024 1024" version="1.1" xmlns="http://www.w3.org/2000/svg" p-id="7827" xmlns:xlink="http://www.w3.org/1999/xlink" width="200" height="200"><path d="M724.309333 525.141333c5.802667 1.706667 8.021333 5.632 8.704 10.922667 0.512 3.925333 0.853333 7.68-0.341333 11.434667-0.682667 1.706667-0.341333 3.072 0.682667 4.608 12.458667 21.162667 24.917333 42.325333 37.205333 63.488 10.922667 18.773333 21.504 37.546667 32.256 56.149333 4.778667 8.362667 9.898667 16.554667 15.018667 24.746667 6.314667 10.069333 11.946667 20.48 14.677333 32.256 2.389333 10.581333 1.365333 20.650667-4.608 29.866666-8.021333 12.288-18.090667 22.357333-31.061333 29.354667-9.386667 5.12-19.626667 6.826667-30.378667 6.485333h-3.072c0 1.194667-0.170667 2.048 0 3.072 0.682667 10.410667-2.901333 19.626667-8.874667 27.989334-8.192 11.605333-19.114667 19.968-31.573333 26.282666-14.848 7.68-30.72 11.776-47.786667 10.581334-8.704-0.512-16.896-3.242667-24.746666-6.826667-12.288-5.461333-23.210667-13.312-33.621334-21.674667-16.896-13.824-32.256-29.184-47.786666-44.373333-14.506667-14.165333-29.013333-28.16-41.813334-43.861333-7.168-8.874667-13.994667-18.261333-20.821333-27.477334-0.682667-1.024-1.536-2.048-2.389333-3.413333-1.194667 1.194667-1.877333 2.218667-2.730667 3.072-12.288 13.653333-27.818667 21.162667-46.250667 20.821333-19.456-0.341333-37.034667-6.826667-52.736-18.432-5.461333-4.096-9.728-9.386667-12.970666-15.36a87.381333 87.381333 0 0 1-10.24-33.792c-1.365333-14.506667-1.536-29.013333-1.024-43.52 0.512-14.336 0.853333-28.672 1.024-42.837333 0.170667-12.970667 0.512-26.112 2.218666-38.912 0.853333-7.168 2.389333-14.165333 3.754667-21.333333 0.341333-1.536 0.512-2.901333 0.682667-4.437334-0.512-0.341333-0.853333-0.682667-1.365334-0.853333-8.874667-3.925333-15.36-10.752-20.48-18.773333-0.853333-1.536-2.048-1.536-3.584-1.706667-10.581333-0.512-20.992-1.706667-31.402666-3.754667-17.578667-3.584-34.304-9.557333-50.005334-17.749333a10.325333 10.325333 0 0 0-5.973333-1.365333c-6.997333 0.170667-13.312-2.048-19.114667-5.632-9.386667-5.973333-17.578667-13.482667-25.088-21.504-12.8-13.482667-22.698667-29.184-31.744-45.226667-3.242667-5.632-5.290667-11.605333-4.949333-18.261333 0-1.365333-0.682667-2.901333-1.194667-4.266667a184.832 184.832 0 0 1-13.824-58.026667c-1.706667-24.405333 0.853333-48.298667 8.192-71.68 10.410667-32.768 28.16-60.757333 53.589334-83.968 25.088-22.869333 54.101333-37.717333 87.210666-45.226666 17.92-4.096 36.181333-5.290667 54.442667-4.096 68.266667 4.778667 126.464 44.885333 156.16 102.570666 10.410667 20.309333 17.066667 41.642667 19.968 64.170667 0.512 3.584 0.682667 7.168 1.024 10.752 0.170667 3.072 0.170667 3.072 3.072 3.754667 5.632 1.536 10.752 4.437333 15.018667 8.533333 10.24 10.24 20.821333 20.309333 30.549333 31.061333 26.965333 29.354667 52.053333 60.416 75.946667 92.330667 11.264 15.189333 21.845333 31.061333 30.037333 48.128 2.730667 5.802667 5.290667 11.605333 7.850667 17.408 3.413333 8.021333 5.12 16.384 4.949333 25.088v3.413333h-0.682667z m-521.045333-155.477333c1.194667-0.853333 2.218667-1.365333 3.242667-2.048 5.461333-3.925333 10.752-8.192 16.384-11.776 11.946667-7.509333 24.234667-7.68 36.522666 0 1.877333 1.194667 3.754667 2.56 5.632 4.096 10.581333 8.362667 20.309333 17.749333 29.013334 27.989333 6.997333 8.192 13.653333 16.554667 19.114666 25.770667 3.584 5.973333 5.802667 12.458667 6.997334 19.285333 1.365333 8.192-1.365333 15.530667-7.168 21.333334-4.096 4.266667-8.874667 7.850667-13.312 11.776-0.853333 0.682667-1.706667 1.365333-3.072 2.389333 41.813333 17.578667 83.626667 19.114667 126.122666 5.632v-0.853333c-0.170667-0.512-0.512-1.024-0.853333-1.536-7.68-12.970667-12.117333-27.136-14.848-41.813334-2.218667-11.605333-0.341333-22.528 6.144-32.426666 2.901333-4.437333 5.802667-8.704 9.216-12.629334 8.021333-9.045333 15.701333-18.432 24.576-26.794666 14.848-14.165333 30.378667-27.818667 48.298667-38.229334 8.533333-4.949333 16.725333-10.410667 26.112-13.994666 5.802667-2.218667 11.605333-3.925333 17.578666-5.802667 2.389333-0.853333 2.56-0.853333 2.389334-3.413333 0-1.706667-0.341333-3.413333-0.512-5.12a167.2192 167.2192 0 0 0-17.92-61.952 174.762667 174.762667 0 0 0-176.810667-94.890667c-21.674667 2.730667-42.154667 9.045333-61.44 19.285333-52.906667 28.16-87.381333 81.578667-91.989333 139.946667-1.877333 24.746667 1.194667 48.981333 9.386666 72.362667 0.341333 1.024 0.853333 2.048 1.536 3.413333h-0.341333z m229.546667 27.648c-1.877333 2.56-3.413333 4.437333-5.12 6.485333-5.461333 6.997333-6.656 14.848-5.290667 23.381334 1.877333 10.410667 5.12 20.48 9.045333 30.378666 3.072 7.850667 7.168 15.36 12.288 22.186667 19.285333 25.6 39.082667 50.517333 60.757334 74.24 14.336 15.701333 28.842667 31.232 45.226666 45.056 5.973333 4.949333 11.776 9.898667 18.432 13.653333 4.778667 2.56 9.728 3.925333 15.018667 3.413334 6.314667-0.682667 12.288-2.730667 18.090667-5.12 0.170667 0 0.341333-0.512 0.512-0.853334-4.096-3.413333-8.362667-6.826667-12.288-10.410666-20.650667-18.261333-38.4-39.594667-56.832-59.904a6.912 6.912 0 0 1 7.850666-10.922667c1.536 0.682667 3.072 1.706667 4.437334 2.730667 2.730667 2.389333 5.290667 4.949333 7.850666 7.509333 7.68 8.021333 15.018667 16.213333 22.698667 24.064 10.410667 10.922667 20.992 21.504 32.426667 31.061333 5.802667 4.949333 16.554667 5.461333 22.698666 1.536 18.090667-11.605333 35.328-24.576 51.712-38.4 5.802667-4.949333 11.434667-10.069333 16.896-15.530666 5.290667-5.290667 8.704-11.776 9.045334-19.456 0.341333-5.973333-0.512-11.946667-2.901334-17.408-3.584-8.021333-7.168-16.213333-11.093333-24.064-7.168-14.506667-16.213333-27.648-25.941333-40.448-12.458667-16.554667-25.6-32.426667-38.4-48.810667-14.336-18.261333-29.525333-35.498667-45.738667-52.224-6.485333-6.656-13.141333-13.141333-19.797333-19.626667-4.778667-4.778667-10.581333-6.485333-17.237334-5.461333l-5.12 1.024c-6.656 1.536-13.312 3.584-19.456 6.656-13.824 7.168-27.477333 14.848-39.594666 24.746667-13.653333 11.264-26.624 23.210667-38.4 36.522666-1.536 1.877333-1.706667 3.242667-0.682667 5.290667 2.389333 4.949333 4.778667 9.898667 6.997333 14.848 5.632 12.288 12.288 24.064 20.48 34.816 6.144 8.192 12.288 16.384 18.602667 24.405333 11.264 14.336 22.869333 28.501333 34.304 42.666667 1.194667 1.536 2.56 3.072 3.413333 4.778667 1.706667 3.072 1.536 5.973333-0.682666 8.874666-1.877333 2.56-5.290667 3.754667-8.533334 2.389334a11.4688 11.4688 0 0 1-4.778666-3.754667c-14.677333-18.261333-29.354667-36.693333-44.032-54.954667-13.482667-16.725333-24.917333-34.645333-32.597334-54.954666-0.853333-2.389333-1.877333-4.778667-2.901333-6.997334-0.341333-0.853333-0.853333-1.706667-1.536-3.242666l0.170667-0.170667z m77.824 304.128c1.877333 2.389333 3.584 4.096 5.12 5.973333 12.458667 15.36 24.405333 31.061333 38.4 45.226667 15.872 16.213333 32.256 31.744 48.298666 47.786667 2.389333 2.389333 4.608 2.901333 7.850667 1.877333 13.141333-3.925333 25.770667-9.045333 37.546667-16.384 20.821333-13.141333 39.253333-29.184 56.832-46.592 1.536-1.365333 2.730667-3.072 4.096-4.608-0.512-0.682667-0.682667-1.194667-1.024-1.706667-4.608-6.314667-9.045333-12.629333-13.824-18.944-10.410667-13.653333-20.821333-27.306667-31.232-41.130666-1.024-1.365333-2.048-2.730667-2.56-4.096a7.850667 7.850667 0 0 1 1.365333-8.533334c2.218667-2.389333 4.949333-2.730667 8.021333-2.048 2.218667 0.512 3.754667 2.218667 5.12 4.096l12.117334 16.213334 33.28 44.032c0.682667 0.853333 1.365333 1.536 2.048 2.389333 1.536-1.024 2.901333-2.048 4.266666-2.901333 9.216-6.826667 18.602667-13.482667 27.648-20.821334 10.24-8.362667 20.309333-16.725333 27.306667-28.16 1.536-2.56 1.706667-4.266667 0-6.826666-19.626667-33.450667-39.082667-67.072-58.538667-100.522667-0.512-0.853333-1.194667-1.706667-1.877333-2.730667-1.024 0.853333-1.877333 1.365333-2.56 2.048-11.434667 11.264-24.064 21.333333-36.693333 31.232-15.872 12.458667-31.744 25.088-48.64 36.181334-13.482667 8.704-27.136 17.066667-40.618667 25.770666-13.994667 9.045333-27.989333 18.432-41.984 27.648-3.413333 2.218667-7.168 4.266667-10.922667 6.144-7.850667 3.584-15.872 5.973333-24.576 5.290667h-2.56c-0.512 1.365333-1.024 2.730667-1.365333 4.096h-0.341333z m5.290666-55.637333c5.973333-1.024 36.352-16.384 41.472-20.992-0.682667-0.512-1.365333-1.194667-2.048-1.706667-4.096-3.242667-8.362667-6.144-12.458666-9.557333-16.725333-13.653333-31.744-29.013333-46.08-45.056-6.997333-7.850667-15.36-13.824-24.746667-18.261334-17.92-8.533333-36.693333-13.141333-56.661333-10.922666-5.802667 0.682667-11.434667 2.218667-16.554667 5.12-1.536 0.853333-2.389333 1.877333-2.56 3.754666-0.341333 5.973333-1.194667 12.117333-1.365333 18.090667-0.512 13.653333-0.682667 27.477333-0.853334 41.130667 0 0.682667 0 1.536 0.341334 2.730666 36.522667-12.458667 71.509333-7.168 105.813333 9.045334 0-1.877333 0.341333-3.072 0.341333-4.437334v-17.066666c0-4.608 3.072-8.021333 7.338667-8.192 3.925333-0.341333 7.509333 2.730667 8.192 6.997333 0.512 2.56 0.682667 5.290667 0.682667 8.021333-0.170667 10.069333-0.682667 19.968-0.853334 30.037334v11.434666-0.170666z m-122.538666 11.605333c0.341333 4.096 0.512 7.850667 0.853333 11.605333 0.853333 10.069333 3.584 19.626667 8.362667 28.501334a34.133333 34.133333 0 0 0 10.069333 11.434666c10.922667 7.509333 22.869333 12.117333 36.181333 13.653334 11.434667 1.365333 22.016-1.024 31.402667-7.68 8.192-5.632 14.336-12.970667 16.384-22.869334 0.853333-3.754667 1.024-7.509333 1.536-11.434666 1.024-8.533333 0-10.069333-7.509333-13.824-8.021333-3.925333-16.384-6.826667-25.088-8.021334-11.605333-1.536-23.210667-3.072-34.986667-3.925333-9.898667-0.853333-19.797333-0.853333-29.525333 1.024-2.389333 0.512-4.778667 0.853333-7.68 1.536z m-151.722667-290.986667c-5.12 0-6.826667 0.341333-10.752 3.242667-7.850667 5.461333-15.36 11.093333-23.210667 16.725333-1.365333 1.024-1.706667 2.218667-1.024 3.584 1.024 2.218667 2.218667 4.608 3.584 6.826667 3.925333 6.144 8.021333 12.288 11.946667 18.432 6.656 10.410667 14.506667 19.797333 23.381333 28.501333 5.12 4.949333 10.581333 9.386667 16.554667 13.141334 3.754667 2.218667 7.68 3.584 11.946667 2.730666 11.776-2.218667 20.821333-8.704 28.330666-17.749333 1.877333-2.218667 2.389333-4.949333 1.706667-7.850667-1.194667-5.973333-3.754667-11.264-7.168-16.213333-9.557333-13.824-20.309333-26.624-32.938667-37.717333-4.096-3.584-8.362667-6.997333-12.8-10.24-2.901333-2.218667-6.144-3.754667-9.557333-3.413334zM650.752 837.973333q0.512 0.853333 0.682667 1.024c10.752 5.973333 22.016 9.216 34.474666 7.850667 17.237333-2.048 32.426667-8.874667 45.568-19.968 4.608-3.925333 8.362667-8.362667 11.434667-13.482667 3.584-5.802667 5.12-12.117333 3.072-18.944-1.536-5.461333-3.584-10.752-6.656-15.701333-0.512-1.024-1.365333-1.877333-2.048-3.072-1.194667 1.024-2.389333 1.877333-3.242667 2.901333-3.584 3.584-7.168 7.338667-10.752 10.922667-12.458667 12.117333-26.282667 22.528-40.618666 32.256-9.216 6.485333-18.944 12.117333-29.866667 15.36-0.682667 0.170667-1.194667 0.512-2.048 0.853333z m95.573333-79.018666c0.341333 0.853333 0.341333 1.365333 0.512 1.536l10.24 17.408c0.341333 0.682667 1.365333 1.365333 2.218667 1.365333 3.413333 0.341333 6.997333 0.853333 10.410667 0.512 20.48-2.389333 34.645333-14.165333 45.056-31.061333 2.730667-4.437333 3.072-9.386667 2.048-14.506667-1.365333-7.338667-4.096-13.994667-7.68-20.48-0.341333-0.682667-0.853333-1.194667-1.877334-2.389333-0.853333 1.194667-1.536 2.218667-2.389333 2.901333-4.949333 5.12-9.898667 10.24-15.018667 15.018667-8.874667 8.192-18.773333 15.189333-29.354666 20.992-4.778667 2.56-9.386667 5.461333-14.165334 8.362666v0.341334z m-126.805333 56.661333c0.853333 1.024 1.365333 1.536 1.877333 2.048 3.242667 2.730667 6.485333 5.290667 9.728 8.021333 1.536 1.365333 3.072 1.365333 4.778667 0.853334 11.946667-3.584 23.381333-8.362667 33.792-15.189334 21.162667-13.824 40.277333-30.208 57.685333-48.469333 0.170667-0.170667 0.341333-0.512 0.512-0.853333-1.706667-3.754667-7.509333-11.605333-9.728-13.312-5.290667 4.949333-10.410667 9.898667-15.701333 14.848-13.482667 12.970667-28.16 24.234667-43.690667 34.474666-11.264 7.509333-23.210667 13.653333-36.522666 16.725334-0.853333 0.170667-1.536 0.512-2.901334 1.024l0.170667-0.170667zM393.216 642.389333c1.877333-0.341333 3.072-0.512 4.096-0.853333 8.704-2.389333 17.578667-3.413333 26.624-2.730667 9.728 0.682667 19.456 1.194667 29.184 2.218667 15.018667 1.536 29.696 4.266667 43.349333 10.922667 0.853333 0.341333 1.706667 0.512 2.901334 1.024 0.170667-3.925333 0.341333-7.509333 0.682666-11.093334 0.170667-2.389333-0.682667-3.754667-2.730666-5.12-6.826667-4.608-14.165333-7.850667-22.016-10.24-12.629333-4.096-25.6-6.826667-38.912-6.826666-9.386667 0-18.602667 1.024-27.648 2.730666-4.266667 0.853333-8.362667 2.218667-12.458667 3.413334-2.048 0.512-2.901333 1.877333-2.901333 4.266666 0 2.901333 0 5.802667-0.170667 8.704v3.925334-0.341334z m121.344 39.936c3.413333 0.682667 6.485333 0 9.386667-1.024 6.485333-2.218667 12.629333-5.12 18.432-9.045333 13.141333-8.704 26.282667-17.578667 39.594666-26.112 13.994667-9.045333 27.989333-17.749333 41.984-26.794667l3.242667-2.218666c0-0.170667-0.341333-0.512-0.341333-0.682667-1.024 0.512-2.218667 1.024-3.242667 1.536-4.949333 2.389333-9.728 4.949333-14.848 6.997333-9.728 3.925333-19.626667 7.338667-30.378667 6.826667-1.194667 0-2.56 0.682667-3.754666 1.536-11.093333 7.509333-22.528 14.336-34.816 19.626667-7.168 3.072-14.506667 5.632-21.845334 8.362666-2.730667 1.024-2.901333 1.024-2.901333 3.925334 0 2.389333-0.341333 4.949333-0.341333 7.338666v9.728h-0.170667z m223.232 64.853334l3.584-2.389334c4.949333-3.413333 9.898667-6.997333 15.018667-10.069333 13.312-8.021333 25.088-18.090667 35.498666-29.525333 2.389333-2.56 4.437333-5.290667 6.656-8.021334-1.365333-2.218667-2.389333-3.925333-3.413333-5.802666-1.024-1.706667-2.218667-3.413333-3.413333-5.12-16.896 21.504-38.912 36.352-61.44 50.858666 2.56 3.413333 4.778667 6.656 7.338666 10.069334h0.170667z m-356.693333-248.490667c2.048 3.072 4.778667 4.266667 7.509333 5.461333 7.168 3.242667 14.677333 3.584 22.186667 2.389334 6.997333-1.024 13.653333-3.413333 20.309333-6.314667 2.048-0.853333 3.925333-1.877333 6.314667-2.901333-1.706667-2.389333-3.242667-4.437333-4.778667-6.485334q-2.218667-2.901333-5.802667-1.706666c-9.557333 3.072-19.456 5.632-29.354666 7.168-5.290667 0.853333-10.581333 1.536-16.384 2.218666v0.170667z m66.389333 11.776c-1.365333 0.682667-2.389333 1.024-3.413333 1.536-9.898667 4.437333-19.797333 8.533333-30.549334 10.24-3.925333 0.682667-7.850667 0.512-11.776 0.682667-2.389333 0-2.730667 0.682667-1.877333 3.584 20.48-6.314667 40.96-3.754667 61.098667 2.048 0-0.170667 0.170667-0.512 0.341333-0.682667-4.437333-5.632-9.045333-11.434667-13.824-17.408zM119.466667 281.088c0.512-32.768 9.216-63.317333 25.088-91.818667 16.042667-28.842667 37.717333-52.906667 63.488-73.386666 13.482667-10.752 27.989333-20.309333 43.178666-28.672 1.536-0.853333 3.413333-1.536 5.12-1.877334 3.584-0.512 6.656 1.536 7.850667 4.608 1.194667 3.072 0.341333 6.826667-2.389333 8.874667-1.536 1.194667-3.072 2.048-4.778667 2.901333-29.354667 16.384-55.466667 37.034667-76.970667 62.976-16.896 20.48-29.866667 43.178667-37.546666 68.608a162.218667 162.218667 0 0 0-6.997334 56.490667c0 2.730667 0.512 5.290667 0.512 8.021333 0 4.437333-2.56 7.68-6.826666 8.362667a7.4752 7.4752 0 0 1-8.362667-6.656c-0.853333-6.144-1.024-12.288-1.536-18.432H119.466667zM571.562667 918.698667c0 3.072-1.365333 5.461333-4.096 6.826666a7.509333 7.509333 0 0 1-8.192-0.682666c-1.194667-1.024-2.218667-2.218667-3.242667-3.584l-103.424-131.584c-3.413333-4.437333-6.826667-8.704-10.410667-13.141334-1.365333-1.706667-2.218667-3.413333-2.389333-5.632 0-3.242667 1.365333-5.632 4.266667-6.997333 2.901333-1.365333 5.632-1.194667 8.192 0.853333 1.194667 1.024 2.218667 2.389333 3.242666 3.584 28.672 36.352 57.173333 72.704 85.674667 109.056 9.045333 11.434667 18.090667 23.04 27.136 34.474667 1.536 2.048 3.072 4.096 3.072 6.826667h0.170667zM794.282667 251.221333q-2.048-1.194667-3.242667-2.218666c-2.048-1.706667-3.754667-3.925333-5.973333-5.461334-11.434667-8.362667-23.552-9.045333-36.010667-2.389333-0.682667 0.341333-1.365333 0.853333-2.048 1.194667-3.413333 1.877333-5.802667 1.706667-8.021333-1.024-2.218667-2.56-2.218667-4.778667 0.341333-7.850667a34.133333 34.133333 0 0 0 7.68-15.018667c2.218667-10.410667-0.341333-19.797333-6.826667-28.16-0.853333-1.024-1.536-2.048-2.218666-3.072-1.024-1.706667-0.853333-3.413333 0.170666-4.949333 2.389333-3.584 6.656-4.437333 9.898667-1.536 4.096 3.584 8.533333 6.826667 13.653333 8.874667 10.24 4.096 20.138667 3.754667 29.696-2.048 0.682667-0.341333 1.194667-0.682667 1.877334-1.024 3.072-1.536 5.461333-1.024 7.68 1.706666 2.048 2.56 2.048 4.778667 0 7.509334 0 0.170667-0.341333 0.341333-0.512 0.512-9.898667 11.776-10.24 24.576-3.925334 38.058666 1.194667 2.56 2.901333 4.949333 4.266667 7.509334 2.048 3.925333-1.365333 9.386667-6.656 9.216l0.170667 0.170666zM239.957333 565.930667q-0.512 1.536-1.024 2.389333c-0.341333 0.682667-0.853333 1.194667-1.194666 1.706667-9.216 10.922667-10.069333 23.04-4.778667 35.84 1.365333 3.072 3.242667 5.973333 4.778667 8.874666 1.365333 2.389333 1.536 4.608 0 6.826667-2.901333 3.925333-6.314667 4.266667-9.557334 0.682667-4.778667-5.12-10.24-9.045333-17.066666-10.922667-8.704-2.218667-16.725333-1.024-24.576 3.242667-0.853333 0.512-1.706667 1.194667-2.730667 1.536-2.901333 1.536-5.290667 1.194667-7.509333-1.365334-2.048-2.56-2.218667-4.949333 0-7.509333 3.413333-4.096 6.144-8.533333 7.509333-13.653333 2.901333-10.410667 0.682667-19.797333-5.290667-28.501334-0.853333-1.194667-1.706667-2.218667-2.56-3.242666-1.877333-2.56-1.706667-4.949333 0-6.997334 2.56-2.56 5.632-3.242667 8.192-1.536 1.024 0.682667 1.877333 1.536 2.730667 2.218667 5.290667 4.437333 11.093333 7.850667 18.090667 9.386667 8.192 1.706667 15.872 0.682667 23.210666-3.584 1.024-0.512 1.877333-1.194667 3.072-1.706667 3.925333-1.706667 8.704 1.536 8.704 6.144v0.170667zM873.642667 909.141333c0 4.096-1.706667 6.485333-4.608 7.68-2.901333 1.365333-5.802667 0.853333-8.192-1.194666-1.365333-1.194667-2.389333-2.56-3.413334-3.925334-18.773333-23.893333-37.546667-47.957333-56.32-71.850666-1.194667-1.536-2.389333-2.901333-3.413333-4.437334-2.389333-3.754667-1.706667-8.021333 1.365333-10.581333 3.242667-2.56 7.509333-2.218667 10.581334 1.024 1.536 1.536 2.730667 3.413333 4.096 5.12 18.773333 23.893333 37.546667 47.957333 56.32 71.850667 1.706667 2.048 3.413333 4.096 3.242666 6.144l0.341334 0.170666zM897.706667 185.002667a19.285333 19.285333 0 0 1-19.797334 18.773333c-10.410667-0.341333-18.944-9.386667-18.602666-19.968 0.341333-10.410667 9.045333-18.432 19.456-18.261333 10.752 0.170667 19.114667 9.045333 18.773333 19.626666l0.170667-0.170666z m-18.944-9.557334c-4.949333 0-9.216 4.096-9.216 9.045334 0 4.778667 3.925333 8.874667 8.704 9.045333 4.949333 0.170667 9.216-3.754667 9.216-8.874667 0-5.12-3.754667-9.216-8.874667-9.216h0.170667zM201.216 820.906667c0-10.922667 8.362667-19.285333 19.114667-19.285334 10.581333 0 19.114667 8.533333 19.114666 19.114667 0 10.581333-8.533333 19.114667-18.944 19.285333-10.581333 0-19.285333-8.362667-19.285333-19.114666z m28.16 0c0-4.949333-3.925333-9.216-8.874667-9.216-4.778667 0-8.874667 3.925333-9.045333 8.704 0 5.12 3.754667 9.216 8.704 9.386666 4.949333 0 9.216-3.925333 9.216-8.874666z" fill="#000000" p-id="7828"></path></svg>